<svg width="486" height="486" viewBox="0 0 486 486" fill="none" xmlns="http://www.w3.org/2000/svg">
<path d="M120.035 81.6009C124.415 68.1935 123.932 53.6716 118.67 40.5852L63.0015 62.969L120.035 81.6009Z" fill="#FF8811" stroke="#094065" stroke-width="5"/>
<path d="M118.669 40.5813C113.406 27.4953 103.701 16.6816 91.2581 10.0391L63.0018 62.9691L118.669 40.5813Z" stroke="#094065" stroke-width="5"/>
<path d="M91.2536 10.0374C78.8104 3.39577 64.4252 1.35018 50.6239 4.25977L63.001 62.9693L91.2536 10.0374Z" stroke="#094065" stroke-width="5"/>
<path d="M50.6201 4.26082C36.8189 7.17138 24.4843 14.851 15.7821 25.9512L63.0013 62.9695L50.6201 4.26082Z" stroke="#094065" stroke-width="5"/>
<path d="M15.7804 25.9543C7.07902 37.0551 2.56653 50.8666 3.03534 64.9635L63.0022 62.9692L15.7804 25.9543Z" stroke="#094065" stroke-width="5"/>
<path d="M3.03493 64.9677C3.50472 79.0646 8.9258 92.5454 18.3463 103.043L63.0016 62.9692L3.03493 64.9677Z" stroke="#094065" stroke-width="5"/>
<path d="M18.3485 103.046C27.7697 113.543 40.5878 120.385 54.552 122.371L63.0011 62.9693L18.3485 103.046Z" stroke="#094065" stroke-width="5"/>
<path d="M54.5569 122.372C68.5212 124.357 82.7385 121.359 94.7124 113.905L63.0019 62.9692L54.5569 122.372Z" stroke="#094065" stroke-width="5"/>
<path d="M94.7154 113.903C106.689 106.447 115.653 95.0121 120.034 81.6049L63.0013 62.9691L94.7154 113.903Z" stroke="#094065" stroke-width="5"/>
<circle cx="63" cy="63" r="9" fill="#094065"/>
<path d="M300.035 81.6009C304.415 68.1935 303.932 53.6716 298.67 40.5852L243.002 62.969L300.035 81.6009Z" fill="#FF8811" stroke="#094065" stroke-width="5"/>
<path d="M298.669 40.5813C293.406 27.4953 283.701 16.6816 271.258 10.0391L243.002 62.9691L298.669 40.5813Z" stroke="#094065" stroke-width="5"/>
<path d="M271.254 10.0374C258.81 3.39577 244.425 1.35018 230.624 4.25977L243.001 62.9693L271.254 10.0374Z" stroke="#094065" stroke-width="5"/>
<path d="M230.62 4.26082C216.819 7.17138 204.484 14.851 195.782 25.9512L243.001 62.9695L230.62 4.26082Z" stroke="#094065" stroke-width="5"/>
<path d="M195.78 25.9543C187.079 37.0551 182.567 50.8666 183.035 64.9635L243.002 62.9692L195.78 25.9543Z" stroke="#094065" stroke-width="5"/>
<path d="M183.035 64.9677C183.505 79.0646 188.926 92.5454 198.346 103.043L243.002 62.9692L183.035 64.9677Z" stroke="#094065" stroke-width="5"/>
<path d="M198.349 103.046C207.77 113.543 220.588 120.385 234.552 122.371L243.001 62.9693L198.349 103.046Z" stroke="#094065" stroke-width="5"/>
<path d="M234.557 122.372C248.521 124.357 262.739 121.359 274.712 113.905L243.002 62.9692L234.557 122.372Z" stroke="#094065" stroke-width="5"/>
<path d="M274.715 113.903C286.689 106.447 295.653 95.0121 300.034 81.6049L243.001 62.9691L274.715 113.903Z" fill="#FF8811" stroke="#094065" stroke-width="5"/>
<circle cx="243" cy="63" r="9" fill="#094065"/>
<path d="M480.035 81.6009C484.415 68.1935 483.932 53.6716 478.67 40.5852L423.002 62.969L480.035 81.6009Z" fill="#FF8811" stroke="#094065" stroke-width="5"/>
<path d="M478.669 40.5813C473.406 27.4953 463.701 16.6816 451.258 10.0391L423.002 62.9691L478.669 40.5813Z" stroke="#094065" stroke-width="5"/>
<path d="M451.254 10.0374C438.81 3.39577 424.425 1.35018 410.624 4.25977L423.001 62.9693L451.254 10.0374Z" stroke="#094065" stroke-width="5"/>
<path d="M410.62 4.26082C396.819 7.17138 384.484 14.851 375.782 25.9512L423.001 62.9695L410.62 4.26082Z" stroke="#094065" stroke-width="5"/>
<path d="M375.78 25.9543C367.079 37.0551 362.567 50.8666 363.035 64.9635L423.002 62.9692L375.78 25.9543Z" stroke="#094065" stroke-width="5"/>
<path d="M363.035 64.9677C363.505 79.0646 368.926 92.5454 378.346 103.043L423.002 62.9692L363.035 64.9677Z" stroke="#094065" stroke-width="5"/>
<path d="M378.349 103.046C387.77 113.543 400.588 120.385 414.552 122.371L423.001 62.9693L378.349 103.046Z" stroke="#094065" stroke-width="5"/>
<path d="M414.557 122.372C428.521 124.357 442.739 121.359 454.712 113.905L423.002 62.9692L414.557 122.372Z" fill="#FF8811" stroke="#094065" stroke-width="5"/>
<path d="M454.715 113.903C466.689 106.447 475.653 95.0121 480.034 81.6049L423.001 62.9691L454.715 113.903Z" fill="#FF8811" stroke="#094065" stroke-width="5"/>
<circle cx="423" cy="63" r="9" fill="#094065"/>
<path d="M120.035 261.601C124.415 248.193 123.932 233.672 118.67 220.585L63.0015 242.969L120.035 261.601Z" stroke="#094065" stroke-width="5"/>
<path d="M118.669 220.581C113.406 207.495 103.701 196.682 91.2581 190.039L63.0018 242.969L118.669 220.581Z" stroke="#094065" stroke-width="5"/>
<path d="M91.2536 190.037C78.8104 183.396 64.4252 181.35 50.6239 184.26L63.001 242.969L91.2536 190.037Z" stroke="#094065" stroke-width="5"/>
<path d="M50.6201 184.261C36.8189 187.171 24.4843 194.851 15.7821 205.951L63.0013 242.969L50.6201 184.261Z" stroke="#094065" stroke-width="5"/>
<path d="M15.7804 205.954C7.07902 217.055 2.56653 230.867 3.03534 244.964L63.0022 242.969L15.7804 205.954Z" stroke="#094065" stroke-width="5"/>
<path d="M3.03493 244.968C3.50472 259.065 8.9258 272.545 18.3463 283.043L63.0016 242.969L3.03493 244.968Z" stroke="#094065" stroke-width="5"/>
<path d="M18.3485 283.046C27.7697 293.543 40.5878 300.385 54.552 302.371L63.0011 242.969L18.3485 283.046Z" stroke="#094065" stroke-width="5"/>
<path d="M54.5569 302.372C68.5212 304.357 82.7385 301.359 94.7124 293.905L63.0019 242.969L54.5569 302.372Z" stroke="#094065" stroke-width="5"/>
<path d="M94.7154 293.903C106.689 286.447 115.653 275.012 120.034 261.605L63.0013 242.969L94.7154 293.903Z" fill="#FF8811" stroke="#094065" stroke-width="5"/>
<circle cx="63" cy="243" r="9" fill="#094065"/>
<path d="M300.035 261.601C304.415 248.193 303.932 233.672 298.67 220.585L243.002 242.969L300.035 261.601Z" stroke="#094065" stroke-width="5"/>
<path d="M298.669 220.581C293.406 207.495 283.701 196.682 271.258 190.039L243.002 242.969L298.669 220.581Z" stroke="#094065" stroke-width="5"/>
<path d="M271.254 190.037C258.81 183.396 244.425 181.35 230.624 184.26L243.001 242.969L271.254 190.037Z" stroke="#094065" stroke-width="5"/>
<path d="M230.62 184.261C216.819 187.171 204.484 194.851 195.782 205.951L243.001 242.969L230.62 184.261Z" stroke="#094065" stroke-width="5"/>
<path d="M195.78 205.954C187.079 217.055 182.567 230.867 183.035 244.964L243.002 242.969L195.78 205.954Z" stroke="#094065" stroke-width="5"/>
<path d="M183.035 244.968C183.505 259.065 188.926 272.545 198.346 283.043L243.002 242.969L183.035 244.968Z" stroke="#094065" stroke-width="5"/>
<path d="M198.349 283.046C207.77 293.543 220.588 300.385 234.552 302.371L243.001 242.969L198.349 283.046Z" stroke="#094065" stroke-width="5"/>
<path d="M234.557 302.372C248.521 304.357 262.739 301.359 274.712 293.905L243.002 242.969L234.557 302.372Z" fill="#FF8811" stroke="#094065" stroke-width="5"/>
<path d="M274.715 293.903C286.689 286.447 295.653 275.012 300.034 261.605L243.001 242.969L274.715 293.903Z" fill="#FF8811" stroke="#094065" stroke-width="5"/>
<circle cx="243" cy="243" r="9" fill="#094065"/>
<path d="M480.035 261.601C484.415 248.193 483.932 233.672 478.67 220.585L423.002 242.969L480.035 261.601Z" stroke="#094065" stroke-width="5"/>
<path d="M478.669 220.581C473.406 207.495 463.701 196.682 451.258 190.039L423.002 242.969L478.669 220.581Z" stroke="#094065" stroke-width="5"/>
<path d="M451.254 190.037C438.81 183.396 424.425 181.35 410.624 184.26L423.001 242.969L451.254 190.037Z" stroke="#094065" stroke-width="5"/>
<path d="M410.62 184.261C396.819 187.171 384.484 194.851 375.782 205.951L423.001 242.969L410.62 184.261Z" stroke="#094065" stroke-width="5"/>
<path d="M375.78 205.954C367.079 217.055 362.567 230.867 363.035 244.964L423.002 242.969L375.78 205.954Z" stroke="#094065" stroke-width="5"/>
<path d="M363.035 244.968C363.505 259.065 368.926 272.545 378.346 283.043L423.002 242.969L363.035 244.968Z" stroke="#094065" stroke-width="5"/>
<path d="M378.349 283.046C387.77 293.543 400.588 300.385 414.552 302.371L423.001 242.969L378.349 283.046Z" fill="#FF8811" stroke="#094065" stroke-width="5"/>
<path d="M414.557 302.372C428.521 304.357 442.739 301.359 454.712 293.905L423.002 242.969L414.557 302.372Z" fill="#FF8811" stroke="#094065" stroke-width="5"/>
<path d="M454.715 293.903C466.689 286.447 475.653 275.012 480.034 261.605L423.001 242.969L454.715 293.903Z" fill="#FF8811" stroke="#094065" stroke-width="5"/>
<circle cx="423" cy="243" r="9" fill="#094065"/>
<path d="M120.035 441.601C124.415 428.193 123.932 413.672 118.67 400.585L63.0015 422.969L120.035 441.601Z" stroke="#094065" stroke-width="5"/>
<path d="M118.669 400.581C113.406 387.495 103.701 376.682 91.2581 370.039L63.0018 422.969L118.669 400.581Z" stroke="#094065" stroke-width="5"/>
<path d="M91.2536 370.037C78.8104 363.396 64.4252 361.35 50.6239 364.26L63.001 422.969L91.2536 370.037Z" stroke="#094065" stroke-width="5"/>
<path d="M50.6201 364.261C36.8189 367.171 24.4843 374.851 15.7821 385.951L63.0013 422.969L50.6201 364.261Z" stroke="#094065" stroke-width="5"/>
<path d="M15.7804 385.954C7.07902 397.055 2.56653 410.867 3.03534 424.964L63.0022 422.969L15.7804 385.954Z" stroke="#094065" stroke-width="5"/>
<path d="M3.03493 424.968C3.50472 439.065 8.9258 452.545 18.3463 463.043L63.0016 422.969L3.03493 424.968Z" stroke="#094065" stroke-width="5"/>
<path d="M18.3485 463.046C27.7697 473.543 40.5878 480.385 54.552 482.371L63.0011 422.969L18.3485 463.046Z" stroke="#094065" stroke-width="5"/>
<path d="M54.5569 482.372C68.5212 484.357 82.7385 481.359 94.7124 473.905L63.0019 422.969L54.5569 482.372Z" fill="#FF8811" stroke="#094065" stroke-width="5"/>
<path d="M94.7154 473.903C106.689 466.447 115.653 455.012 120.034 441.605L63.0013 422.969L94.7154 473.903Z" stroke="#094065" stroke-width="5"/>
<circle cx="63" cy="423" r="9" fill="#094065"/>
<path d="M300.035 441.601C304.415 428.193 303.932 413.672 298.67 400.585L243.002 422.969L300.035 441.601Z" stroke="#094065" stroke-width="5"/>
<path d="M298.669 400.581C293.406 387.495 283.701 376.682 271.258 370.039L243.002 422.969L298.669 400.581Z" stroke="#094065" stroke-width="5"/>
<path d="M271.254 370.037C258.81 363.396 244.425 361.35 230.624 364.26L243.001 422.969L271.254 370.037Z" stroke="#094065" stroke-width="5"/>
<path d="M230.62 364.261C216.819 367.171 204.484 374.851 195.782 385.951L243.001 422.969L230.62 364.261Z" stroke="#094065" stroke-width="5"/>
<path d="M195.78 385.954C187.079 397.055 182.567 410.867 183.035 424.964L243.002 422.969L195.78 385.954Z" stroke="#094065" stroke-width="5"/>
<path d="M183.035 424.968C183.505 439.065 188.926 452.545 198.346 463.043L243.002 422.969L183.035 424.968Z" stroke="#094065" stroke-width="5"/>
<path d="M198.349 463.046C207.77 473.543 220.588 480.385 234.552 482.371L243.001 422.969L198.349 463.046Z" fill="#FF8811" stroke="#094065" stroke-width="5"/>
<path d="M234.557 482.372C248.521 484.357 262.739 481.359 274.712 473.905L243.002 422.969L234.557 482.372Z" fill="#FF8811" stroke="#094065" stroke-width="5"/>
<path d="M274.715 473.903C286.689 466.447 295.653 455.012 300.034 441.605L243.001 422.969L274.715 473.903Z" stroke="#094065" stroke-width="5"/>
<circle cx="243" cy="423" r="9" fill="#094065"/>
<path d="M363 423.45C363 390.313 389.413 363 422.55 363C455.687 363 483 389.413 483 422.55C483 455.687 456.587 483 423.45 483C390.313 483 363 456.587 363 423.45Z" fill="#FF8811"/>
<path d="M419.782 439.098C422.776 437.129 425.487 436.945 428.81 438.115C431.038 439.598 432.604 440.84 433.186 443.484C433.348 445.972 433.088 447.618 431.502 449.582C429.428 451.628 427.692 452.241 424.805 452.4C422.405 452.332 421.068 451.746 419.257 450.106C417.612 448.185 416.983 446.55 417.157 444.013C417.525 441.874 418.152 440.594 419.782 439.098Z" fill="#FFFBF9"/>
<path d="M414.17 394.836C422.749 392.655 432.398 393.092 439.753 398.325C442.282 400.6 444.302 403.595 444.593 407.028C444.725 412.922 443.15 416.89 439.216 421.275C438.171 422.242 437.097 423.163 436.009 424.081C433.295 426.437 432.375 428.135 431.337 431.759H419.258C419.258 426.22 421.187 423.873 424.869 419.858C426.086 418.654 426.085 418.654 427.472 417.577C429.676 415.763 430.637 413.477 431.075 410.693C430.732 408.768 430.111 407.958 428.711 406.597C426.023 404.745 423.462 404.623 420.308 405.025C417.342 405.736 414.842 406.57 412.758 408.858C412.076 409.555 412.075 409.555 411.38 410.267C409.007 410.172 407.169 408.938 405.209 407.711C404.744 407.434 404.744 407.435 404.27 407.152C401.991 405.746 401.991 405.745 401.4 403.976C404.091 399.367 409.269 396.503 414.17 394.836Z" fill="#FFFBF9"/>
</svg>

