<svg width="480" height="480" viewBox="0 0 480 480" fill="none" xmlns="http://www.w3.org/2000/svg">
<rect x="26.2852" y="102.857" width="427.429" height="272" fill="white" stroke="#094065" stroke-width="8"/>
<line x1="453.143" y1="175.571" x2="26.8568" y2="175.571" stroke="#FE8711" stroke-width="6"/>
<line x1="453.143" y1="204.571" x2="26.8568" y2="204.571" stroke="#FE8711" stroke-width="16"/>
<line x1="453.143" y1="257.286" x2="26.8568" y2="257.286" stroke="#FE8711" stroke-width="6"/>
<line x1="453.143" y1="228.571" x2="26.8568" y2="228.571" stroke="#094065" stroke-width="8"/>
<path d="M202.857 378.857L198.286 378.857L120 98.8569L124.571 98.8569L202.857 378.857Z" fill="#5F9DD6"/>
<path d="M219.144 378.857L214.572 378.857L214.572 98.8569H219.144L219.144 378.857Z" fill="#5F9DD6"/>
<path d="M161.331 158.668H161.333C161.843 158.668 162.353 158.668 162.879 158.667C164.608 158.667 166.338 158.67 168.067 158.672H168.068C169.322 158.673 170.576 158.672 171.829 158.671C174.856 158.671 177.883 158.673 180.91 158.676C184.411 158.679 187.911 158.681 191.411 158.681C200.656 158.683 209.902 158.69 219.147 158.696C239.632 158.705 260.118 158.714 281.214 158.723V282.552H156.561C156.551 262.208 156.541 241.858 156.531 220.897L156.519 201.234C156.517 193.342 156.516 193.342 156.516 189.654C156.515 187.064 156.513 184.474 156.511 181.884C156.508 178.902 156.507 175.92 156.508 172.938C156.508 171.41 156.507 169.883 156.505 168.355C156.503 166.724 156.503 165.093 156.504 163.462V163.46C156.503 162.978 156.501 162.497 156.5 162C156.501 161.566 156.502 161.132 156.503 160.685V160.683C156.502 160.306 156.502 159.949 156.502 159.561C156.521 159.278 156.542 159.092 156.573 158.96C156.603 158.836 156.631 158.806 156.636 158.801C156.64 158.797 156.669 158.768 156.799 158.738C156.932 158.707 157.12 158.686 157.404 158.667C157.587 158.667 157.77 158.667 157.955 158.667H158.537C158.974 158.667 159.41 158.665 159.859 158.665C160.345 158.666 160.831 158.667 161.331 158.668Z" fill="#FEFEFE" stroke="#094065"/>
<path d="M216.218 238.856C218.673 237.249 220.896 237.098 223.621 238.054C225.448 239.264 226.733 240.278 227.21 242.436C227.343 244.467 227.13 245.811 225.829 247.414C224.128 249.084 222.705 249.585 220.337 249.714C218.369 249.659 217.272 249.18 215.787 247.842C214.438 246.274 213.922 244.939 214.064 242.868C214.366 241.122 214.88 240.077 216.218 238.856Z" fill="#094065"/>
<path d="M211.615 202.723C218.65 200.943 226.564 201.3 232.596 205.571C234.67 207.428 236.327 209.873 236.565 212.676C236.673 217.487 235.381 220.727 232.155 224.306C231.298 225.096 230.417 225.847 229.525 226.597C227.299 228.52 226.545 229.906 225.694 232.865H215.788C215.788 228.343 217.369 226.427 220.389 223.15C221.387 222.167 221.387 222.167 222.524 221.288C224.331 219.807 225.12 217.94 225.479 215.668C225.198 214.097 224.688 213.435 223.541 212.325C221.336 210.813 219.236 210.712 216.649 211.041C214.217 211.621 212.166 212.302 210.457 214.17C209.897 214.739 209.897 214.739 209.327 215.32C207.381 215.242 205.873 214.235 204.266 213.234C203.885 213.008 203.885 213.008 203.496 212.778C201.627 211.629 201.627 211.629 201.143 210.185C203.349 206.422 207.595 204.084 211.615 202.723Z" fill="#094065"/>
</svg>

