<svg width="480" height="480" viewBox="0 0 480 480" fill="none" xmlns="http://www.w3.org/2000/svg">
<path d="M150.286 106.857C180.08 106.857 209.875 106.857 240.572 106.857C240.572 135.897 240.572 164.937 240.572 194.857C299.029 194.857 357.486 194.857 417.715 194.857C417.715 224.651 417.715 254.446 417.715 285.143C359.257 285.143 300.8 285.143 240.572 285.143C240.572 314.56 240.572 343.977 240.572 374.286C210.777 374.286 180.983 374.286 150.286 374.286C150.286 344.869 150.286 315.451 150.286 285.143C121.435 285.143 92.5831 285.143 62.8574 285.143C62.8574 255.349 62.8574 225.554 62.8574 194.857C91.7089 194.857 120.56 194.857 150.286 194.857C150.286 165.817 150.286 136.777 150.286 106.857Z" fill="white"/>
<path d="M152 285.143C180.663 285.143 209.326 285.143 238.857 285.143C238.857 313.806 238.857 342.469 238.857 372C210.194 372 181.531 372 152 372C152 343.337 152 314.674 152 285.143Z" fill="#094065"/>
<path d="M152 108C180.663 108 209.326 108 238.857 108C238.857 136.663 238.857 165.326 238.857 194.857C210.194 194.857 181.531 194.857 152 194.857C152 166.194 152 137.531 152 108Z" fill="#094065"/>
<path d="M329.143 196.571C357.617 196.571 386.091 196.571 415.428 196.571C415.428 225.234 415.428 253.897 415.428 283.429C386.954 283.429 358.48 283.429 329.143 283.429C329.143 254.766 329.143 226.103 329.143 196.571Z" fill="white"/>
<path d="M241.143 196.571C269.617 196.571 298.091 196.571 327.428 196.571C327.428 225.234 327.428 253.897 327.428 283.429C298.954 283.429 270.48 283.429 241.143 283.429C241.143 254.766 241.143 226.103 241.143 196.571Z" fill="#094065"/>
<path d="M64 196.571C92.4743 196.571 120.949 196.571 150.286 196.571C150.286 225.234 150.286 253.897 150.286 283.429C121.811 283.429 93.3371 283.429 64 283.429C64 254.766 64 226.103 64 196.571Z" fill="#094065"/>
<path d="M150.286 106.857C180.08 106.857 209.875 106.857 240.572 106.857C240.572 135.897 240.572 164.937 240.572 194.857C299.029 194.857 357.486 194.857 417.715 194.857C417.715 224.651 417.715 254.446 417.715 285.143C359.257 285.143 300.8 285.143 240.572 285.143C240.572 314.56 240.572 343.977 240.572 374.286C210.777 374.286 180.983 374.286 150.286 374.286C150.286 344.869 150.286 315.451 150.286 285.143C121.435 285.143 92.5831 285.143 62.8574 285.143C62.8574 255.349 62.8574 225.554 62.8574 194.857C91.7089 194.857 120.56 194.857 150.286 194.857C150.286 165.817 150.286 136.777 150.286 106.857ZM152 108C152 136.663 152 165.326 152 194.857C180.663 194.857 209.326 194.857 238.857 194.857C238.857 166.194 238.857 137.531 238.857 108C210.195 108 181.532 108 152 108ZM64.0003 196.571C64.0003 225.234 64.0003 253.897 64.0003 283.429C92.4746 283.429 120.949 283.429 150.286 283.429C150.286 254.766 150.286 226.103 150.286 196.571C121.812 196.571 93.3374 196.571 64.0003 196.571ZM152 196.571C152 225.234 152 253.897 152 283.429C180.663 283.429 209.326 283.429 238.857 283.429C238.857 254.766 238.857 226.103 238.857 196.571C210.195 196.571 181.532 196.571 152 196.571ZM241.143 196.571C241.143 225.234 241.143 253.897 241.143 283.429C269.617 283.429 298.092 283.429 327.429 283.429C327.429 254.766 327.429 226.103 327.429 196.571C298.955 196.571 270.48 196.571 241.143 196.571ZM329.143 196.571C329.143 225.234 329.143 253.897 329.143 283.429C357.617 283.429 386.092 283.429 415.429 283.429C415.429 254.766 415.429 226.103 415.429 196.571C386.955 196.571 358.48 196.571 329.143 196.571ZM152 285.143C152 313.806 152 342.469 152 372C180.663 372 209.326 372 238.857 372C238.857 343.337 238.857 314.674 238.857 285.143C210.195 285.143 181.532 285.143 152 285.143Z" fill="#FF8811"/>
</svg>

