<svg width="480" height="480" viewBox="0 0 480 480" fill="none" xmlns="http://www.w3.org/2000/svg">
<rect x="22.2852" y="97.1428" width="435.429" height="285.714" fill="#FF8811"/>
<rect x="193.715" y="97.1428" width="92.5714" height="285.714" fill="#094065"/>
<path d="M241.714 382.857H238.857L156 97.143L158.857 97.1428L241.714 382.857Z" fill="white"/>
<path d="M238.857 382.857L241.715 382.857L324.572 97.1428L321.715 97.1428L238.857 382.857Z" fill="white"/>
<line x1="22.2852" y1="237.5" x2="457.714" y2="237.5" stroke="white" stroke-width="5"/>
<rect x="159.428" y="189.143" width="161.143" height="101.714" fill="white"/>
<path d="M236.934 255.332C239.786 253.456 242.368 253.281 245.532 254.396C247.654 255.808 249.146 256.99 249.699 259.509C249.854 261.878 249.606 263.446 248.096 265.317C246.12 267.265 244.468 267.849 241.718 268C239.432 267.936 238.159 267.377 236.434 265.816C234.867 263.986 234.268 262.429 234.434 260.012C234.784 257.976 235.381 256.756 236.934 255.332Z" fill="#094065"/>
<path d="M231.589 213.177C239.759 211.1 248.949 211.516 255.954 216.5C258.363 218.666 260.287 221.519 260.563 224.788C260.689 230.402 259.189 234.181 255.442 238.357C254.447 239.278 253.424 240.155 252.388 241.029C249.803 243.274 248.927 244.89 247.939 248.342H236.435C236.435 243.067 238.272 240.831 241.779 237.008C242.938 235.861 242.937 235.861 244.258 234.835C246.357 233.108 247.272 230.93 247.689 228.279C247.363 226.446 246.771 225.674 245.438 224.379C242.878 222.615 240.439 222.498 237.435 222.881C234.61 223.558 232.229 224.353 230.245 226.532C229.595 227.196 229.594 227.196 228.932 227.873C226.672 227.783 224.921 226.607 223.055 225.439C222.612 225.175 222.612 225.176 222.161 224.907C219.991 223.567 219.99 223.567 219.428 221.882C221.99 217.492 226.921 214.765 231.589 213.177Z" fill="#094065"/>
</svg>

