<svg width="480" height="480" viewBox="0 0 480 480" fill="none" xmlns="http://www.w3.org/2000/svg">
<path d="M63.8996 25.8H94.1996M94.1996 25.8V54.6M94.1996 25.8L36.5996 83.4" stroke="#094065" stroke-width="6"/>
<path d="M243.9 25.8H274.2M274.2 25.8V54.6M274.2 25.8L216.6 83.4" stroke="#094065" stroke-width="6"/>
<path d="M236.1 94.1999L205.8 94.1999M205.8 94.1999L205.8 65.3999M205.8 94.1999L263.4 36.6" stroke="#094065" stroke-width="6"/>
<path d="M416.1 94.1999L385.8 94.1999M385.8 94.1999L385.8 65.3999M385.8 94.1999L443.4 36.6" stroke="#094065" stroke-width="6"/>
<path d="M30.5996 181.8H88.7996M88.7996 181.8C88.7996 181.8 88.7996 252.506 88.7996 298.2M88.7996 181.8L31.1996 240C31.1996 240 66.4226 275.472 88.7996 298.2M88.7996 298.2C66.4226 298.2 52.9767 298.2 30.5996 298.2" stroke="#094065" stroke-width="6"/>
<path d="M240 181.8H298.2M298.2 181.8C298.2 181.8 298.2 252.506 298.2 298.2M298.2 181.8L240.6 240C240.6 240 275.823 275.472 298.2 298.2M298.2 298.2C275.823 298.2 262.377 298.2 240 298.2" stroke="#094065" stroke-width="6"/>
<path d="M240 298.2L181.8 298.2M181.8 298.2C181.8 298.2 181.8 227.494 181.8 181.8M181.8 298.2L239.4 240C239.4 240 204.177 204.528 181.8 181.8M181.8 181.8C204.177 181.8 217.623 181.8 240 181.8" stroke="#094065" stroke-width="6"/>
<path d="M448.801 298.2L390.601 298.2M390.601 298.2C390.601 298.2 390.601 227.494 390.601 181.8M390.601 298.2L448.201 240C448.201 240 412.978 204.528 390.601 181.8M390.601 181.8C412.978 181.8 426.424 181.8 448.801 181.8" stroke="#094065" stroke-width="6"/>
<path d="M94.1992 423.9L94.1992 454.2M94.1992 454.2L65.3992 454.2M94.1992 454.2L36.5992 396.6" stroke="#094065" stroke-width="6"/>
<path d="M205.801 416.1L205.801 385.8M205.801 385.8L234.601 385.8M205.801 385.8L263.401 443.4" stroke="#094065" stroke-width="6"/>
<path d="M274.199 423.9L274.199 454.2M274.199 454.2L245.399 454.2M274.199 454.2L216.599 396.6" stroke="#094065" stroke-width="6"/>
<path d="M360 360C399.6 360 439.2 360 480 360C480 399.6 480 439.2 480 480C440.4 480 400.8 480 360 480C360 440.4 360 400.8 360 360Z" fill="#FF8811"/>
<path d="M416.782 436.098C419.776 434.129 422.487 433.945 425.81 435.116C428.038 436.598 429.604 437.84 430.186 440.485C430.348 442.972 430.088 444.618 428.502 446.583C426.428 448.629 424.692 449.241 421.805 449.4C419.405 449.332 418.068 448.746 416.257 447.107C414.612 445.185 413.983 443.55 414.157 441.013C414.525 438.875 415.152 437.594 416.782 436.098Z" fill="#FFFBF9"/>
<path d="M411.17 391.836C419.749 389.655 429.398 390.092 436.753 395.325C439.282 397.6 441.302 400.595 441.593 404.028C441.725 409.922 440.15 413.89 436.216 418.275C435.171 419.242 434.097 420.163 433.009 421.081C430.295 423.438 429.375 425.135 428.337 428.759H416.258C416.258 423.22 418.187 420.873 421.869 416.859C423.086 415.654 423.085 415.654 424.472 414.577C426.676 412.764 427.637 410.477 428.075 407.693C427.732 405.768 427.111 404.958 425.711 403.598C423.023 401.746 420.462 401.623 417.308 402.025C414.342 402.736 411.842 403.57 409.758 405.858C409.076 406.556 409.075 406.555 408.38 407.267C406.007 407.172 404.169 405.938 402.209 404.711C401.744 404.434 401.744 404.435 401.27 404.153C398.991 402.746 398.991 402.745 398.4 400.976C401.091 396.367 406.269 393.503 411.17 391.836Z" fill="#FFFBF9"/>
</svg>

