<svg width="520" height="520" viewBox="0 0 520 520" fill="none" xmlns="http://www.w3.org/2000/svg">
<path d="M0 0C39.6 0 79.2 0 120 0C120 39.6 120 79.2 120 120C80.4 120 40.8 120 0 120C0 80.4 0 40.8 0 0Z" fill="#094065"/>
<path d="M43.8008 43.7998C54.4928 43.7998 65.1848 43.7998 76.2008 43.7998C76.2008 54.4918 76.2008 65.1838 76.2008 76.1998C65.5088 76.1998 54.8168 76.1998 43.8008 76.1998C43.8008 65.5078 43.8008 54.8158 43.8008 43.7998Z" fill="#FF8811"/>
<path d="M43.8008 80.3999C54.4928 80.3999 65.1848 80.3999 76.2008 80.3999C76.2008 91.0919 76.2008 101.784 76.2008 112.8C65.5088 112.8 54.8168 112.8 43.8008 112.8C43.8008 102.108 43.8008 91.4159 43.8008 80.3999Z" fill="white"/>
<path d="M80.4004 43.7998C91.0924 43.7998 101.784 43.7998 112.8 43.7998C112.8 54.4918 112.8 65.1838 112.8 76.1998C102.108 76.1998 91.4164 76.1998 80.4004 76.1998C80.4004 65.5078 80.4004 54.8158 80.4004 43.7998Z" fill="white"/>
<path d="M7.19922 43.7998C17.8912 43.7998 28.5832 43.7998 39.5992 43.7998C39.5992 54.4918 39.5992 65.1838 39.5992 76.1998C28.9072 76.1998 18.2152 76.1998 7.19922 76.1998C7.19922 65.5078 7.19922 54.8158 7.19922 43.7998Z" fill="white"/>
<path d="M43.8008 7.2002C54.4928 7.2002 65.1848 7.2002 76.2008 7.2002C76.2008 17.8922 76.2008 28.5842 76.2008 39.6002C65.5088 39.6002 54.8168 39.6002 43.8008 39.6002C43.8008 28.9082 43.8008 18.2162 43.8008 7.2002Z" fill="white"/>
<path d="M80.4004 80.3999C91.0924 80.3999 101.784 80.3999 112.8 80.3999C112.8 91.0919 112.8 101.784 112.8 112.8C102.108 112.8 91.4164 112.8 80.4004 112.8C80.4004 102.108 80.4004 91.4159 80.4004 80.3999Z" fill="white"/>
<path d="M7.19922 80.3999C17.8912 80.3999 28.5832 80.3999 39.5992 80.3999C39.5992 91.0919 39.5992 101.784 39.5992 112.8C28.9072 112.8 18.2152 112.8 7.19922 112.8C7.19922 102.108 7.19922 91.4159 7.19922 80.3999Z" fill="white"/>
<path d="M80.4004 7.2002C91.0924 7.2002 101.784 7.2002 112.8 7.2002C112.8 17.8922 112.8 28.5842 112.8 39.6002C102.108 39.6002 91.4164 39.6002 80.4004 39.6002C80.4004 28.9082 80.4004 18.2162 80.4004 7.2002Z" fill="#FF8811"/>
<path d="M7.19922 7.2002C17.8912 7.2002 28.5832 7.2002 39.5992 7.2002C39.5992 17.8922 39.5992 28.5842 39.5992 39.6002C28.9072 39.6002 18.2152 39.6002 7.19922 39.6002C7.19922 28.9082 7.19922 18.2162 7.19922 7.2002Z" fill="white"/>
<path d="M193.334 0C232.934 0 272.534 0 313.334 0C313.334 39.6 313.334 79.2 313.334 120C273.734 120 234.134 120 193.334 120C193.334 80.4 193.334 40.8 193.334 0Z" fill="#094065"/>
<path d="M237.135 43.7998C247.827 43.7998 258.519 43.7998 269.535 43.7998C269.535 54.4918 269.535 65.1838 269.535 76.1998C258.843 76.1998 248.151 76.1998 237.135 76.1998C237.135 65.5078 237.135 54.8158 237.135 43.7998Z" fill="#FF8811"/>
<path d="M237.135 80.3999C247.827 80.3999 258.519 80.3999 269.535 80.3999C269.535 91.0919 269.535 101.784 269.535 112.8C258.843 112.8 248.151 112.8 237.135 112.8C237.135 102.108 237.135 91.4159 237.135 80.3999Z" fill="white"/>
<path d="M273.734 43.7998C284.426 43.7998 295.118 43.7998 306.134 43.7998C306.134 54.4918 306.134 65.1838 306.134 76.1998C295.442 76.1998 284.75 76.1998 273.734 76.1998C273.734 65.5078 273.734 54.8158 273.734 43.7998Z" fill="#FF8811"/>
<path d="M200.533 43.7998C211.225 43.7998 221.917 43.7998 232.933 43.7998C232.933 54.4918 232.933 65.1838 232.933 76.1998C222.241 76.1998 211.549 76.1998 200.533 76.1998C200.533 65.5078 200.533 54.8158 200.533 43.7998Z" fill="white"/>
<path d="M237.135 7.2002C247.827 7.2002 258.519 7.2002 269.535 7.2002C269.535 17.8922 269.535 28.5842 269.535 39.6002C258.843 39.6002 248.151 39.6002 237.135 39.6002C237.135 28.9082 237.135 18.2162 237.135 7.2002Z" fill="white"/>
<path d="M273.734 80.3999C284.426 80.3999 295.118 80.3999 306.134 80.3999C306.134 91.0919 306.134 101.784 306.134 112.8C295.442 112.8 284.75 112.8 273.734 112.8C273.734 102.108 273.734 91.4159 273.734 80.3999Z" fill="white"/>
<path d="M200.533 80.3999C211.225 80.3999 221.917 80.3999 232.933 80.3999C232.933 91.0919 232.933 101.784 232.933 112.8C222.241 112.8 211.549 112.8 200.533 112.8C200.533 102.108 200.533 91.4159 200.533 80.3999Z" fill="white"/>
<path d="M273.734 7.2002C284.426 7.2002 295.118 7.2002 306.134 7.2002C306.134 17.8922 306.134 28.5842 306.134 39.6002C295.442 39.6002 284.75 39.6002 273.734 39.6002C273.734 28.9082 273.734 18.2162 273.734 7.2002Z" fill="white"/>
<path d="M200.533 7.2002C211.225 7.2002 221.917 7.2002 232.933 7.2002C232.933 17.8922 232.933 28.5842 232.933 39.6002C222.241 39.6002 211.549 39.6002 200.533 39.6002C200.533 28.9082 200.533 18.2162 200.533 7.2002Z" fill="white"/>
<path d="M386.666 0C426.266 0 465.866 0 506.666 0C506.666 39.6 506.666 79.2 506.666 120C467.066 120 427.466 120 386.666 120C386.666 80.4 386.666 40.8 386.666 0Z" fill="#094065"/>
<path d="M430.467 43.7998C441.159 43.7998 451.851 43.7998 462.867 43.7998C462.867 54.4918 462.867 65.1838 462.867 76.1998C452.175 76.1998 441.483 76.1998 430.467 76.1998C430.467 65.5078 430.467 54.8158 430.467 43.7998Z" fill="#FF8811"/>
<path d="M430.467 80.3999C441.159 80.3999 451.851 80.3999 462.867 80.3999C462.867 91.0919 462.867 101.784 462.867 112.8C452.175 112.8 441.483 112.8 430.467 112.8C430.467 102.108 430.467 91.4159 430.467 80.3999Z" fill="white"/>
<path d="M467.066 43.7998C477.758 43.7998 488.45 43.7998 499.466 43.7998C499.466 54.4918 499.466 65.1838 499.466 76.1998C488.774 76.1998 478.082 76.1998 467.066 76.1998C467.066 65.5078 467.066 54.8158 467.066 43.7998Z" fill="white"/>
<path d="M393.865 43.7998C404.557 43.7998 415.249 43.7998 426.265 43.7998C426.265 54.4918 426.265 65.1838 426.265 76.1998C415.573 76.1998 404.881 76.1998 393.865 76.1998C393.865 65.5078 393.865 54.8158 393.865 43.7998Z" fill="white"/>
<path d="M430.467 7.2002C441.159 7.2002 451.851 7.2002 462.867 7.2002C462.867 17.8922 462.867 28.5842 462.867 39.6002C452.175 39.6002 441.483 39.6002 430.467 39.6002C430.467 28.9082 430.467 18.2162 430.467 7.2002Z" fill="white"/>
<path d="M467.066 80.3999C477.758 80.3999 488.45 80.3999 499.466 80.3999C499.466 91.0919 499.466 101.784 499.466 112.8C488.774 112.8 478.082 112.8 467.066 112.8C467.066 102.108 467.066 91.4159 467.066 80.3999Z" fill="#FF8811"/>
<path d="M393.865 80.3999C404.557 80.3999 415.249 80.3999 426.265 80.3999C426.265 91.0919 426.265 101.784 426.265 112.8C415.573 112.8 404.881 112.8 393.865 112.8C393.865 102.108 393.865 91.4159 393.865 80.3999Z" fill="white"/>
<path d="M467.066 7.2002C477.758 7.2002 488.45 7.2002 499.466 7.2002C499.466 17.8922 499.466 28.5842 499.466 39.6002C488.774 39.6002 478.082 39.6002 467.066 39.6002C467.066 28.9082 467.066 18.2162 467.066 7.2002Z" fill="white"/>
<path d="M393.865 7.2002C404.557 7.2002 415.249 7.2002 426.265 7.2002C426.265 17.8922 426.265 28.5842 426.265 39.6002C415.573 39.6002 404.881 39.6002 393.865 39.6002C393.865 28.9082 393.865 18.2162 393.865 7.2002Z" fill="white"/>
<path d="M0 193.333C39.6 193.333 79.2 193.333 120 193.333C120 232.933 120 272.534 120 313.334C80.4 313.334 40.8 313.334 0 313.334C0 273.734 0 234.133 0 193.333Z" fill="#094065"/>
<path d="M43.8008 237.133C54.4928 237.133 65.1848 237.133 76.2008 237.133C76.2008 247.825 76.2008 258.517 76.2008 269.533C65.5088 269.533 54.8168 269.533 43.8008 269.533C43.8008 258.841 43.8008 248.149 43.8008 237.133Z" fill="#FF8811"/>
<path d="M43.8008 273.733C54.4928 273.733 65.1848 273.733 76.2008 273.733C76.2008 284.425 76.2008 295.117 76.2008 306.133C65.5088 306.133 54.8168 306.133 43.8008 306.133C43.8008 295.441 43.8008 284.749 43.8008 273.733Z" fill="#FF8811"/>
<path d="M80.4004 237.133C91.0924 237.133 101.784 237.133 112.8 237.133C112.8 247.825 112.8 258.517 112.8 269.533C102.108 269.533 91.4164 269.533 80.4004 269.533C80.4004 258.841 80.4004 248.149 80.4004 237.133Z" fill="white"/>
<path d="M7.19922 237.133C17.8912 237.133 28.5832 237.133 39.5992 237.133C39.5992 247.825 39.5992 258.517 39.5992 269.533C28.9072 269.533 18.2152 269.533 7.19922 269.533C7.19922 258.841 7.19922 248.149 7.19922 237.133Z" fill="white"/>
<path d="M43.8008 200.534C54.4928 200.534 65.1848 200.534 76.2008 200.534C76.2008 211.226 76.2008 221.918 76.2008 232.934C65.5088 232.934 54.8168 232.934 43.8008 232.934C43.8008 222.242 43.8008 211.55 43.8008 200.534Z" fill="white"/>
<path d="M80.4004 273.733C91.0924 273.733 101.784 273.733 112.8 273.733C112.8 284.425 112.8 295.117 112.8 306.133C102.108 306.133 91.4164 306.133 80.4004 306.133C80.4004 295.441 80.4004 284.749 80.4004 273.733Z" fill="white"/>
<path d="M7.19922 273.733C17.8912 273.733 28.5832 273.733 39.5992 273.733C39.5992 284.425 39.5992 295.117 39.5992 306.133C28.9072 306.133 18.2152 306.133 7.19922 306.133C7.19922 295.441 7.19922 284.749 7.19922 273.733Z" fill="white"/>
<path d="M80.4004 200.534C91.0924 200.534 101.784 200.534 112.8 200.534C112.8 211.226 112.8 221.918 112.8 232.934C102.108 232.934 91.4164 232.934 80.4004 232.934C80.4004 222.242 80.4004 211.55 80.4004 200.534Z" fill="white"/>
<path d="M7.19922 200.534C17.8912 200.534 28.5832 200.534 39.5992 200.534C39.5992 211.226 39.5992 221.918 39.5992 232.934C28.9072 232.934 18.2152 232.934 7.19922 232.934C7.19922 222.242 7.19922 211.55 7.19922 200.534Z" fill="white"/>
<path d="M193.334 193.333C232.934 193.333 272.534 193.333 313.334 193.333C313.334 232.933 313.334 272.534 313.334 313.334C273.734 313.334 234.134 313.334 193.334 313.334C193.334 273.734 193.334 234.133 193.334 193.333Z" fill="#094065"/>
<path d="M237.135 237.133C247.827 237.133 258.519 237.133 269.535 237.133C269.535 247.825 269.535 258.517 269.535 269.533C258.843 269.533 248.151 269.533 237.135 269.533C237.135 258.841 237.135 248.149 237.135 237.133Z" fill="#FF8811"/>
<path d="M236.869 273.733C247.736 273.733 258.604 273.733 269.8 273.733C269.8 284.425 269.8 295.117 269.8 306.133C258.933 306.133 248.066 306.133 236.869 306.133C236.869 295.441 236.869 284.749 236.869 273.733Z" fill="white"/>
<path d="M274.594 237.133C285.113 237.133 295.633 237.133 306.471 237.133C306.471 247.825 306.471 258.517 306.471 269.533C295.952 269.533 285.432 269.533 274.594 269.533C274.594 258.841 274.594 248.149 274.594 237.133Z" fill="white"/>
<path d="M200.594 237.133C211.113 237.133 221.633 237.133 232.471 237.133C232.471 247.825 232.471 258.517 232.471 269.533C221.952 269.533 211.432 269.533 200.594 269.533C200.594 258.841 200.594 248.149 200.594 237.133Z" fill="white"/>
<path d="M236.869 200.534C247.736 200.534 258.604 200.534 269.8 200.534C269.8 211.226 269.8 221.918 269.8 232.934C258.933 232.934 248.066 232.934 236.869 232.934C236.869 222.242 236.869 211.55 236.869 200.534Z" fill="white"/>
<path d="M274.334 273.734C285.026 273.734 295.718 273.734 306.734 273.734C306.734 284.426 306.734 295.118 306.734 306.134C296.042 306.134 285.35 306.134 274.334 306.134C274.334 295.442 274.334 284.75 274.334 273.734Z" fill="white"/>
<path d="M200.334 273.734C211.026 273.734 221.718 273.734 232.734 273.734C232.734 284.426 232.734 295.118 232.734 306.134C222.042 306.134 211.35 306.134 200.334 306.134C200.334 295.442 200.334 284.75 200.334 273.734Z" fill="#FF8811"/>
<path d="M274.334 200.534C285.026 200.534 295.718 200.534 306.734 200.534C306.734 211.226 306.734 221.918 306.734 232.934C296.042 232.934 285.35 232.934 274.334 232.934C274.334 222.242 274.334 211.55 274.334 200.534Z" fill="white"/>
<path d="M200.334 200.534C211.026 200.534 221.718 200.534 232.734 200.534C232.734 211.226 232.734 221.918 232.734 232.934C222.042 232.934 211.35 232.934 200.334 232.934C200.334 222.242 200.334 211.55 200.334 200.534Z" fill="white"/>
<path d="M386.666 193.333C426.266 193.333 465.866 193.333 506.666 193.333C506.666 232.933 506.666 272.534 506.666 313.334C467.066 313.334 427.466 313.334 386.666 313.334C386.666 273.734 386.666 234.133 386.666 193.333Z" fill="#094065"/>
<path d="M430.467 237.133C441.159 237.133 451.851 237.133 462.867 237.133C462.867 247.825 462.867 258.517 462.867 269.533C452.175 269.533 441.483 269.533 430.467 269.533C430.467 258.841 430.467 248.149 430.467 237.133Z" fill="#FF8811"/>
<path d="M430.467 273.733C441.159 273.733 451.851 273.733 462.867 273.733C462.867 284.425 462.867 295.117 462.867 306.133C452.175 306.133 441.483 306.133 430.467 306.133C430.467 295.441 430.467 284.749 430.467 273.733Z" fill="white"/>
<path d="M467.066 237.133C477.758 237.133 488.45 237.133 499.466 237.133C499.466 247.825 499.466 258.517 499.466 269.533C488.774 269.533 478.082 269.533 467.066 269.533C467.066 258.841 467.066 248.149 467.066 237.133Z" fill="white"/>
<path d="M393.865 237.133C404.557 237.133 415.249 237.133 426.265 237.133C426.265 247.825 426.265 258.517 426.265 269.533C415.573 269.533 404.881 269.533 393.865 269.533C393.865 258.841 393.865 248.149 393.865 237.133Z" fill="#FF8811"/>
<path d="M430.467 200.534C441.159 200.534 451.851 200.534 462.867 200.534C462.867 211.226 462.867 221.918 462.867 232.934C452.175 232.934 441.483 232.934 430.467 232.934C430.467 222.242 430.467 211.55 430.467 200.534Z" fill="white"/>
<path d="M467.066 273.733C477.758 273.733 488.45 273.733 499.466 273.733C499.466 284.425 499.466 295.117 499.466 306.133C488.774 306.133 478.082 306.133 467.066 306.133C467.066 295.441 467.066 284.749 467.066 273.733Z" fill="white"/>
<path d="M393.865 273.733C404.557 273.733 415.249 273.733 426.265 273.733C426.265 284.425 426.265 295.117 426.265 306.133C415.573 306.133 404.881 306.133 393.865 306.133C393.865 295.441 393.865 284.749 393.865 273.733Z" fill="white"/>
<path d="M467.066 200.534C477.758 200.534 488.45 200.534 499.466 200.534C499.466 211.226 499.466 221.918 499.466 232.934C488.774 232.934 478.082 232.934 467.066 232.934C467.066 222.242 467.066 211.55 467.066 200.534Z" fill="white"/>
<path d="M393.865 200.534C404.557 200.534 415.249 200.534 426.265 200.534C426.265 211.226 426.265 221.918 426.265 232.934C415.573 232.934 404.881 232.934 393.865 232.934C393.865 222.242 393.865 211.55 393.865 200.534Z" fill="white"/>
<path d="M0 386.667C39.6 386.667 79.2 386.667 120 386.667C120 426.267 120 465.867 120 506.667C80.4 506.667 40.8 506.667 0 506.667C0 467.067 0 427.467 0 386.667Z" fill="#094065"/>
<path d="M43.8008 430.466C54.4928 430.466 65.1848 430.466 76.2008 430.466C76.2008 441.158 76.2008 451.85 76.2008 462.866C65.5088 462.866 54.8168 462.866 43.8008 462.866C43.8008 452.174 43.8008 441.482 43.8008 430.466Z" fill="#FF8811"/>
<path d="M43.8008 467.066C54.4928 467.066 65.1848 467.066 76.2008 467.066C76.2008 477.758 76.2008 488.45 76.2008 499.466C65.5088 499.466 54.8168 499.466 43.8008 499.466C43.8008 488.774 43.8008 478.082 43.8008 467.066Z" fill="white"/>
<path d="M80.4004 430.466C91.0924 430.466 101.784 430.466 112.8 430.466C112.8 441.158 112.8 451.85 112.8 462.866C102.108 462.866 91.4164 462.866 80.4004 462.866C80.4004 452.174 80.4004 441.482 80.4004 430.466Z" fill="white"/>
<path d="M7.19922 430.466C17.8912 430.466 28.5832 430.466 39.5992 430.466C39.5992 441.158 39.5992 451.85 39.5992 462.866C28.9072 462.866 18.2152 462.866 7.19922 462.866C7.19922 452.174 7.19922 441.482 7.19922 430.466Z" fill="white"/>
<path d="M43.8008 393.867C54.4928 393.867 65.1848 393.867 76.2008 393.867C76.2008 404.559 76.2008 415.251 76.2008 426.267C65.5088 426.267 54.8168 426.267 43.8008 426.267C43.8008 415.575 43.8008 404.883 43.8008 393.867Z" fill="white"/>
<path d="M80.4004 467.066C91.0924 467.066 101.784 467.066 112.8 467.066C112.8 477.758 112.8 488.45 112.8 499.466C102.108 499.466 91.4164 499.466 80.4004 499.466C80.4004 488.774 80.4004 478.082 80.4004 467.066Z" fill="white"/>
<path d="M7.19922 467.066C17.8912 467.066 28.5832 467.066 39.5992 467.066C39.5992 477.758 39.5992 488.45 39.5992 499.466C28.9072 499.466 18.2152 499.466 7.19922 499.466C7.19922 488.774 7.19922 478.082 7.19922 467.066Z" fill="white"/>
<path d="M80.4004 393.867C91.0924 393.867 101.784 393.867 112.8 393.867C112.8 404.559 112.8 415.251 112.8 426.267C102.108 426.267 91.4164 426.267 80.4004 426.267C80.4004 415.575 80.4004 404.883 80.4004 393.867Z" fill="white"/>
<path d="M7.19922 393.867C17.8912 393.867 28.5832 393.867 39.5992 393.867C39.5992 404.559 39.5992 415.251 39.5992 426.267C28.9072 426.267 18.2152 426.267 7.19922 426.267C7.19922 415.575 7.19922 404.883 7.19922 393.867Z" fill="#FF8811"/>
<path d="M193.334 386.667C232.934 386.667 272.534 386.667 313.334 386.667C313.334 426.267 313.334 465.867 313.334 506.667C273.734 506.667 234.134 506.667 193.334 506.667C193.334 467.067 193.334 427.467 193.334 386.667Z" fill="#094065"/>
<path d="M237.135 430.466C247.827 430.466 258.519 430.466 269.535 430.466C269.535 441.158 269.535 451.85 269.535 462.866C258.843 462.866 248.151 462.866 237.135 462.866C237.135 452.174 237.135 441.482 237.135 430.466Z" fill="#FF8811"/>
<path d="M237.135 467.667C247.827 467.667 258.519 467.667 269.535 467.667C269.535 478.161 269.535 488.655 269.535 499.467C258.843 499.467 248.151 499.467 237.135 499.467C237.135 488.973 237.135 478.479 237.135 467.667Z" fill="white"/>
<path d="M274.334 430.466C284.828 430.466 295.322 430.466 306.134 430.466C306.134 441.158 306.134 451.85 306.134 462.866C295.64 462.866 285.146 462.866 274.334 462.866C274.334 452.174 274.334 441.482 274.334 430.466Z" fill="white"/>
<path d="M200.533 430.466C211.027 430.466 221.521 430.466 232.333 430.466C232.333 441.158 232.333 451.85 232.333 462.866C221.839 462.866 211.345 462.866 200.533 462.866C200.533 452.174 200.533 441.482 200.533 430.466Z" fill="white"/>
<path d="M237.135 393.867C247.827 393.867 258.519 393.867 269.535 393.867C269.535 404.361 269.535 414.855 269.535 425.667C258.843 425.667 248.151 425.667 237.135 425.667C237.135 415.173 237.135 404.679 237.135 393.867Z" fill="#FF8811"/>
<path d="M274.334 467.667C284.828 467.667 295.322 467.667 306.134 467.667C306.134 478.161 306.134 488.655 306.134 499.467C295.64 499.467 285.146 499.467 274.334 499.467C274.334 488.973 274.334 478.479 274.334 467.667Z" fill="white"/>
<path d="M200.533 467.667C211.027 467.667 221.521 467.667 232.333 467.667C232.333 478.161 232.333 488.655 232.333 499.467C221.839 499.467 211.345 499.467 200.533 499.467C200.533 488.973 200.533 478.479 200.533 467.667Z" fill="white"/>
<path d="M274.334 393.867C284.828 393.867 295.322 393.867 306.134 393.867C306.134 404.361 306.134 414.855 306.134 425.667C295.64 425.667 285.146 425.667 274.334 425.667C274.334 415.173 274.334 404.679 274.334 393.867Z" fill="white"/>
<path d="M200.533 393.867C211.027 393.867 221.521 393.867 232.333 393.867C232.333 404.361 232.333 414.855 232.333 425.667C221.839 425.667 211.345 425.667 200.533 425.667C200.533 415.173 200.533 404.679 200.533 393.867Z" fill="white"/>
<path d="M386.666 386.667C426.266 386.667 465.866 386.667 506.666 386.667C506.666 426.267 506.666 465.867 506.666 506.667C467.066 506.667 427.466 506.667 386.666 506.667C386.666 467.067 386.666 427.467 386.666 386.667Z" fill="#FF8811"/>
<path d="M443.448 462.765C446.442 460.796 449.153 460.612 452.476 461.782C454.704 463.265 456.27 464.506 456.852 467.151C457.014 469.639 456.754 471.284 455.168 473.249C453.094 475.295 451.358 475.908 448.471 476.067C446.071 475.999 444.734 475.412 442.923 473.773C441.278 471.852 440.649 470.217 440.823 467.679C441.191 465.541 441.818 464.26 443.448 462.765Z" fill="#FFFBF9"/>
<path d="M437.836 418.502C446.415 416.322 456.064 416.759 463.419 421.991C465.948 424.266 467.968 427.261 468.259 430.694C468.391 436.588 466.816 440.557 462.882 444.941C461.837 445.909 460.763 446.829 459.675 447.747C456.961 450.104 456.041 451.801 455.003 455.426H442.924C442.924 449.886 444.853 447.539 448.535 443.525C449.752 442.321 449.751 442.32 451.138 441.244C453.342 439.43 454.303 437.143 454.741 434.36C454.398 432.435 453.777 431.624 452.378 430.264C449.689 428.412 447.129 428.289 443.974 428.691C441.008 429.402 438.508 430.237 436.424 432.525C435.742 433.222 435.741 433.222 435.046 433.933C432.673 433.838 430.835 432.604 428.875 431.378C428.41 431.101 428.41 431.101 427.936 430.819C425.657 429.412 425.657 429.412 425.066 427.643C427.757 423.033 432.935 420.17 437.836 418.502Z" fill="#FFFBF9"/>
</svg>

