<svg width="480" height="480" viewBox="0 0 480 480" fill="none" xmlns="http://www.w3.org/2000/svg">
<circle cx="60" cy="60" r="58" stroke="#094065" stroke-width="4"/>
<path d="M239.733 5.11035C239.881 4.96317 240.119 4.96317 240.267 5.11035L294.89 59.7334C295.037 59.8806 295.037 60.1194 294.89 60.2666L240.267 114.89C240.119 115.037 239.881 115.037 239.733 114.89L185.11 60.2666C184.963 60.1194 184.963 59.8806 185.11 59.7334L239.733 5.11035Z" stroke="#094065" stroke-width="4"/>
<circle cx="240" cy="60" r="58" stroke="#094065" stroke-width="4"/>
<path d="M419.646 2.14746C419.842 1.95145 420.158 1.95144 420.354 2.14746L477.853 59.6455C478.049 59.8415 478.049 60.1585 477.853 60.3545L420.354 117.853C420.158 118.049 419.842 118.049 419.646 117.853L362.147 60.3545C361.951 60.1585 361.951 59.8415 362.147 59.6455L419.646 2.14746Z" stroke="#094065" stroke-width="4"/>
<circle cx="60" cy="240" r="58" stroke="#094065" stroke-width="4"/>
<rect x="2" y="182" width="116" height="116" stroke="#094065" stroke-width="4"/>
<path d="M239.733 185.11C239.881 184.963 240.119 184.963 240.267 185.11L294.89 239.733C295.037 239.881 295.037 240.119 294.89 240.267L240.267 294.89C240.119 295.037 239.881 295.037 239.733 294.89L185.11 240.267C184.963 240.119 184.963 239.881 185.11 239.733L239.733 185.11Z" stroke="#094065" stroke-width="4"/>
<circle cx="240" cy="240" r="58" stroke="#094065" stroke-width="4"/>
<rect x="182" y="182" width="116" height="116" stroke="#094065" stroke-width="4"/>
<circle cx="239.999" cy="240" r="10.8" fill="#094065"/>
<path d="M419.646 182.147C419.842 181.951 420.158 181.951 420.354 182.147L477.853 239.646C478.049 239.842 478.049 240.158 477.853 240.354L420.354 297.853C420.158 298.049 419.842 298.049 419.646 297.853L362.147 240.354C361.951 240.158 361.951 239.842 362.147 239.646L419.646 182.147Z" stroke="#094065" stroke-width="4"/>
<circle cx="419.999" cy="240" r="10.8" fill="#094065"/>
<rect x="2" y="362" width="116" height="116" stroke="#094065" stroke-width="4"/>
<rect x="182" y="362" width="116" height="116" stroke="#094065" stroke-width="4"/>
<circle cx="239.999" cy="420" r="10.8" fill="#094065"/>
<path d="M360 420.45C360 387.313 386.413 360 419.55 360C452.687 360 480 386.413 480 419.55C480 452.687 453.587 480 420.45 480C387.313 480 360 453.587 360 420.45Z" fill="#FF8811"/>
<path d="M416.782 436.098C419.776 434.129 422.487 433.945 425.81 435.115C428.038 436.598 429.604 437.84 430.186 440.484C430.348 442.972 430.088 444.618 428.502 446.582C426.428 448.628 424.692 449.241 421.805 449.4C419.405 449.332 418.068 448.746 416.257 447.106C414.612 445.185 413.983 443.55 414.157 441.013C414.525 438.874 415.152 437.594 416.782 436.098Z" fill="#FFFBF9"/>
<path d="M411.17 391.836C419.749 389.655 429.398 390.092 436.753 395.325C439.282 397.6 441.302 400.595 441.593 404.028C441.725 409.922 440.15 413.89 436.216 418.275C435.171 419.242 434.097 420.163 433.009 421.081C430.295 423.437 429.375 425.135 428.337 428.759H416.258C416.258 423.22 418.187 420.873 421.869 416.858C423.086 415.654 423.085 415.654 424.472 414.577C426.676 412.763 427.637 410.477 428.075 407.693C427.732 405.768 427.111 404.958 425.711 403.597C423.023 401.745 420.462 401.623 417.308 402.025C414.342 402.736 411.842 403.57 409.758 405.858C409.076 406.555 409.075 406.555 408.38 407.267C406.007 407.172 404.169 405.938 402.209 404.711C401.744 404.434 401.744 404.435 401.27 404.152C398.991 402.746 398.991 402.745 398.4 400.976C401.091 396.367 406.269 393.503 411.17 391.836Z" fill="#FFFBF9"/>
</svg>

