<svg width="480" height="480" viewBox="0 0 480 480" fill="none" xmlns="http://www.w3.org/2000/svg">
<path d="M116.793 60L60 116.793L3.20703 60L60 3.20703L116.793 60Z" stroke="#094065" stroke-width="6"/>
<path d="M296.793 60L240 116.793L183.207 60L240 3.20703L296.793 60Z" stroke="#094065" stroke-width="6"/>
<path d="M240 41.3999L261.6 78.5999H218.4L240 41.3999Z" fill="#094065"/>
<path d="M420 41.3999L441.6 78.5999H398.4L420 41.3999Z" fill="#094065"/>
<path d="M113.742 240L60 293.742L6.25781 240L60 186.258L113.742 240Z" stroke="#094065" stroke-width="6"/>
<circle cx="60" cy="240" r="57" stroke="#094065" stroke-width="6"/>
<path d="M293.742 240L240 293.742L186.258 240L240 186.258L293.742 240Z" stroke="#094065" stroke-width="6"/>
<mask id="path-8-inside-1_2196_14717" fill="white">
<rect x="212" y="212" width="56" height="56" rx="4"/>
</mask>
<rect x="212" y="212" width="56" height="56" rx="4" stroke="#094065" stroke-width="12" mask="url(#path-8-inside-1_2196_14717)"/>
<path d="M239.5 222L259 256H220L239.5 222Z" fill="#094065"/>
<circle cx="240" cy="240" r="57" stroke="#094065" stroke-width="6"/>
<mask id="path-11-inside-2_2196_14717" fill="white">
<rect x="389.4" y="209.4" width="61.1974" height="61.2" rx="4"/>
</mask>
<rect x="389.4" y="209.4" width="61.1974" height="61.2" rx="4" stroke="#094065" stroke-width="12" mask="url(#path-11-inside-2_2196_14717)"/>
<path d="M419.403 220.8L441.003 258H397.803L419.403 220.8Z" fill="#094065"/>
<circle cx="60" cy="420" r="57" stroke="#094065" stroke-width="6"/>
<circle cx="240" cy="420" r="57" stroke="#094065" stroke-width="6"/>
<mask id="path-15-inside-3_2196_14717" fill="white">
<rect x="209.4" y="389.4" width="61.1974" height="61.2" rx="4"/>
</mask>
<rect x="209.4" y="389.4" width="61.1974" height="61.2" rx="4" stroke="#094065" stroke-width="12" mask="url(#path-15-inside-3_2196_14717)"/>
<path d="M360 420.45C360 387.313 386.413 360 419.55 360C452.687 360 480 386.413 480 419.55C480 452.687 453.587 480 420.45 480C387.313 480 360 453.587 360 420.45Z" fill="#FF8811"/>
<path d="M416.782 436.098C419.776 434.129 422.487 433.945 425.81 435.116C428.038 436.598 429.604 437.84 430.186 440.485C430.348 442.972 430.088 444.618 428.502 446.583C426.428 448.629 424.692 449.241 421.805 449.4C419.405 449.332 418.068 448.746 416.257 447.107C414.612 445.185 413.983 443.55 414.157 441.013C414.525 438.875 415.152 437.594 416.782 436.098Z" fill="#FFFBF9"/>
<path d="M411.17 391.836C419.749 389.655 429.398 390.092 436.753 395.325C439.282 397.6 441.302 400.595 441.593 404.028C441.725 409.922 440.15 413.89 436.216 418.275C435.171 419.242 434.097 420.163 433.009 421.081C430.295 423.438 429.375 425.135 428.337 428.759H416.258C416.258 423.22 418.187 420.873 421.869 416.859C423.086 415.654 423.085 415.654 424.472 414.577C426.676 412.764 427.637 410.477 428.075 407.693C427.732 405.768 427.111 404.958 425.711 403.598C423.023 401.746 420.462 401.623 417.308 402.025C414.342 402.736 411.842 403.57 409.758 405.858C409.076 406.556 409.075 406.555 408.38 407.267C406.007 407.172 404.169 405.938 402.209 404.711C401.744 404.434 401.744 404.435 401.27 404.153C398.991 402.746 398.991 402.745 398.4 400.976C401.091 396.367 406.269 393.503 411.17 391.836Z" fill="#FFFBF9"/>
</svg>

