<svg width="480" height="480" viewBox="0 0 480 480" fill="none" xmlns="http://www.w3.org/2000/svg">
<circle cx="60" cy="60" r="57" stroke="#094065" stroke-width="6"/>
<path d="M59.6761 56.31C63.7921 56.31 66.8301 57.15 68.7901 58.83C70.7781 60.51 71.7721 62.75 71.7721 65.55C71.7721 67.37 71.2961 69.05 70.3441 70.59C69.4201 72.102 67.9921 73.32 66.0601 74.244C64.1561 75.14 61.7901 75.588 58.9621 75.588C56.8901 75.588 54.8321 75.336 52.7881 74.832C50.7721 74.328 49.0361 73.614 47.5801 72.69L50.5621 66.432C51.7381 67.216 53.0261 67.818 54.4261 68.238C55.8541 68.658 57.2821 68.868 58.7101 68.868C60.1381 68.868 61.2721 68.602 62.1121 68.07C62.9801 67.51 63.4141 66.74 63.4141 65.76C63.4141 64.78 62.9941 64.038 62.1541 63.534C61.3141 63.03 59.8301 62.778 57.7021 62.778H49.7221L51.1921 45.6H69.9241V52.026H58.0801L57.7021 56.31H59.6761Z" fill="#094065"/>
<circle cx="240" cy="60" r="57" stroke="#094065" stroke-width="6"/>
<path d="M243.853 57.36C246.289 57.864 248.151 58.872 249.439 60.384C250.755 61.868 251.413 63.674 251.413 65.802C251.413 67.538 250.937 69.148 249.985 70.632C249.061 72.116 247.633 73.32 245.701 74.244C243.797 75.14 241.431 75.588 238.603 75.588C236.531 75.588 234.473 75.336 232.429 74.832C230.413 74.328 228.663 73.614 227.179 72.69L230.203 66.432C231.351 67.216 232.639 67.818 234.067 68.238C235.523 68.658 236.951 68.868 238.351 68.868C239.779 68.868 240.913 68.602 241.753 68.07C242.593 67.538 243.013 66.782 243.013 65.802C243.013 63.898 241.515 62.946 238.519 62.946H235.033V57.696L240.283 52.026H228.691V45.6H249.943V50.808L243.853 57.36Z" fill="#094065"/>
<circle cx="420" cy="60" r="57" stroke="#094065" stroke-width="6"/>
<path d="M412.341 45.6V75H404.025V52.026H398.565V45.6H412.341ZM428.607 56.31C432.723 56.31 435.761 57.15 437.721 58.83C439.709 60.51 440.703 62.75 440.703 65.55C440.703 67.37 440.227 69.05 439.275 70.59C438.351 72.102 436.923 73.32 434.991 74.244C433.087 75.14 430.721 75.588 427.893 75.588C425.821 75.588 423.763 75.336 421.719 74.832C419.703 74.328 417.967 73.614 416.511 72.69L419.493 66.432C420.669 67.216 421.957 67.818 423.357 68.238C424.785 68.658 426.213 68.868 427.641 68.868C429.069 68.868 430.203 68.602 431.043 68.07C431.911 67.51 432.345 66.74 432.345 65.76C432.345 64.78 431.925 64.038 431.085 63.534C430.245 63.03 428.761 62.778 426.633 62.778H418.653L420.123 45.6H438.855V52.026H427.011L426.633 56.31H428.607Z" fill="#094065"/>
<circle cx="60" cy="240" r="57" stroke="#094065" stroke-width="6"/>
<path d="M63.8527 237.36C66.2887 237.864 68.1507 238.872 69.4387 240.384C70.7547 241.868 71.4127 243.674 71.4127 245.802C71.4127 247.538 70.9367 249.148 69.9847 250.632C69.0607 252.116 67.6327 253.32 65.7007 254.244C63.7967 255.14 61.4307 255.588 58.6027 255.588C56.5307 255.588 54.4727 255.336 52.4287 254.832C50.4127 254.328 48.6627 253.614 47.1787 252.69L50.2027 246.432C51.3507 247.216 52.6387 247.818 54.0667 248.238C55.5227 248.658 56.9507 248.868 58.3507 248.868C59.7787 248.868 60.9127 248.602 61.7527 248.07C62.5927 247.538 63.0127 246.782 63.0127 245.802C63.0127 243.898 61.5147 242.946 58.5187 242.946H55.0327V237.696L60.2827 232.026H48.6907V225.6H69.9427V230.808L63.8527 237.36Z" fill="#094065"/>
<circle cx="240" cy="240" r="57" stroke="#094065" stroke-width="6"/>
<path d="M243.853 237.36C246.289 237.864 248.151 238.872 249.439 240.384C250.755 241.868 251.413 243.674 251.413 245.802C251.413 247.538 250.937 249.148 249.985 250.632C249.061 252.116 247.633 253.32 245.701 254.244C243.797 255.14 241.431 255.588 238.603 255.588C236.531 255.588 234.473 255.336 232.429 254.832C230.413 254.328 228.663 253.614 227.179 252.69L230.203 246.432C231.351 247.216 232.639 247.818 234.067 248.238C235.523 248.658 236.951 248.868 238.351 248.868C239.779 248.868 240.913 248.602 241.753 248.07C242.593 247.538 243.013 246.782 243.013 245.802C243.013 243.898 241.515 242.946 238.519 242.946H235.033V237.696L240.283 232.026H228.691V225.6H249.943V230.808L243.853 237.36Z" fill="#094065"/>
<circle cx="420" cy="240" r="57" stroke="#094065" stroke-width="6"/>
<path d="M418.542 225.012C422.77 225.012 426.102 226.258 428.538 228.75C430.974 231.242 432.192 234.826 432.192 239.502C432.192 242.862 431.534 245.76 430.218 248.196C428.93 250.604 427.096 252.438 424.716 253.698C422.364 254.958 419.634 255.588 416.526 255.588C414.874 255.588 413.292 255.392 411.78 255C410.268 254.636 408.98 254.118 407.916 253.446L410.94 247.482C412.368 248.49 414.174 248.994 416.358 248.994C418.458 248.994 420.152 248.42 421.44 247.272C422.756 246.096 423.526 244.402 423.75 242.19C422.07 243.618 419.872 244.332 417.156 244.332C415.308 244.332 413.614 243.954 412.074 243.198C410.534 242.414 409.302 241.322 408.378 239.922C407.482 238.494 407.034 236.87 407.034 235.05C407.034 233.062 407.538 231.312 408.546 229.8C409.582 228.26 410.968 227.084 412.704 226.272C414.468 225.432 416.414 225.012 418.542 225.012ZM419.13 238.368C420.334 238.368 421.314 238.032 422.07 237.36C422.826 236.66 423.204 235.75 423.204 234.63C423.204 233.538 422.826 232.656 422.07 231.984C421.342 231.284 420.348 230.934 419.088 230.934C417.912 230.934 416.946 231.27 416.19 231.942C415.462 232.614 415.098 233.524 415.098 234.672C415.098 235.792 415.462 236.688 416.19 237.36C416.946 238.032 417.926 238.368 419.13 238.368Z" fill="#094065"/>
<circle cx="60" cy="420" r="57" stroke="#094065" stroke-width="6"/>
<path d="M74.4439 429.372H70.0759V435H61.9699V429.372H46.4299V423.954L59.6179 405.6H68.2279L56.2579 422.778H62.2219V417.78H70.0759V422.778H74.4439V429.372Z" fill="#094065"/>
<circle cx="240" cy="420" r="57" stroke="#094065" stroke-width="6"/>
<path d="M251.579 428.406V435H228.689V429.792L239.693 419.502C240.757 418.494 241.471 417.64 241.835 416.94C242.199 416.212 242.381 415.484 242.381 414.756C242.381 413.804 242.059 413.062 241.415 412.53C240.771 411.998 239.833 411.732 238.601 411.732C237.509 411.732 236.501 411.984 235.577 412.488C234.681 412.964 233.939 413.664 233.351 414.588L227.177 411.144C228.325 409.24 229.935 407.742 232.007 406.65C234.079 405.558 236.529 405.012 239.357 405.012C241.597 405.012 243.571 405.376 245.279 406.104C247.015 406.832 248.359 407.882 249.311 409.254C250.291 410.598 250.781 412.166 250.781 413.958C250.781 415.554 250.431 417.066 249.731 418.494C249.059 419.894 247.743 421.49 245.783 423.282L240.239 428.406H251.579Z" fill="#094065"/>
<path d="M360 420.45C360 387.313 386.413 360 419.55 360C452.687 360 480 386.413 480 419.55C480 452.687 453.587 480 420.45 480C387.313 480 360 453.587 360 420.45Z" fill="#FF8811"/>
<path d="M416.782 436.098C419.776 434.129 422.487 433.945 425.81 435.116C428.038 436.598 429.604 437.84 430.186 440.485C430.348 442.972 430.088 444.618 428.502 446.583C426.428 448.629 424.692 449.241 421.805 449.4C419.405 449.332 418.068 448.746 416.257 447.107C414.612 445.185 413.983 443.55 414.157 441.013C414.525 438.875 415.152 437.594 416.782 436.098Z" fill="#FFFBF9"/>
<path d="M411.17 391.836C419.749 389.655 429.398 390.092 436.753 395.325C439.282 397.6 441.302 400.595 441.593 404.028C441.725 409.922 440.15 413.89 436.216 418.275C435.171 419.242 434.097 420.163 433.009 421.081C430.295 423.438 429.375 425.135 428.337 428.759H416.258C416.258 423.22 418.187 420.873 421.869 416.859C423.086 415.654 423.085 415.654 424.472 414.577C426.676 412.764 427.637 410.477 428.075 407.693C427.732 405.768 427.111 404.958 425.711 403.598C423.023 401.746 420.462 401.623 417.308 402.025C414.342 402.736 411.842 403.57 409.758 405.858C409.076 406.556 409.075 406.555 408.38 407.267C406.007 407.172 404.169 405.938 402.209 404.711C401.744 404.434 401.744 404.435 401.27 404.153C398.991 402.746 398.991 402.745 398.4 400.976C401.091 396.367 406.269 393.503 411.17 391.836Z" fill="#FFFBF9"/>
</svg>

