<svg width="480" height="480" viewBox="0 0 480 480" fill="none" xmlns="http://www.w3.org/2000/svg">
<circle cx="60" cy="60" r="57" stroke="#094065" stroke-width="6"/>
<path d="M74.4439 69.372H70.0759V75H61.9699V69.372H46.4299V63.954L59.6179 45.6H68.2279L56.2579 62.778H62.2219V57.78H70.0759V62.778H74.4439V69.372Z" fill="#094065"/>
<circle cx="240" cy="60" r="57" stroke="#094065" stroke-width="6"/>
<path d="M248.548 59.502C249.892 60.286 250.928 61.252 251.656 62.4C252.384 63.548 252.748 64.864 252.748 66.348C252.748 68.196 252.216 69.82 251.152 71.22C250.088 72.62 248.59 73.698 246.658 74.454C244.726 75.21 242.5 75.588 239.98 75.588C237.46 75.588 235.234 75.21 233.302 74.454C231.37 73.698 229.872 72.62 228.808 71.22C227.744 69.82 227.212 68.196 227.212 66.348C227.212 64.864 227.576 63.548 228.304 62.4C229.032 61.252 230.068 60.286 231.412 59.502C230.404 58.802 229.62 57.948 229.06 56.94C228.528 55.932 228.262 54.812 228.262 53.58C228.262 51.872 228.752 50.374 229.732 49.086C230.712 47.77 232.084 46.762 233.848 46.062C235.64 45.362 237.684 45.012 239.98 45.012C242.276 45.012 244.306 45.362 246.07 46.062C247.862 46.762 249.248 47.77 250.228 49.086C251.208 50.374 251.698 51.872 251.698 53.58C251.698 54.812 251.418 55.932 250.858 56.94C250.326 57.948 249.556 58.802 248.548 59.502ZM239.98 50.85C238.944 50.85 238.104 51.13 237.46 51.69C236.816 52.222 236.494 52.978 236.494 53.958C236.494 54.91 236.802 55.666 237.418 56.226C238.062 56.758 238.916 57.024 239.98 57.024C241.044 57.024 241.898 56.758 242.542 56.226C243.186 55.666 243.508 54.91 243.508 53.958C243.508 52.978 243.186 52.222 242.542 51.69C241.898 51.13 241.044 50.85 239.98 50.85ZM239.98 69.75C241.324 69.75 242.388 69.428 243.172 68.784C243.984 68.112 244.39 67.216 244.39 66.096C244.39 64.976 243.984 64.094 243.172 63.45C242.388 62.778 241.324 62.442 239.98 62.442C238.636 62.442 237.558 62.778 236.746 63.45C235.962 64.094 235.57 64.976 235.57 66.096C235.57 67.216 235.962 68.112 236.746 68.784C237.558 69.428 238.636 69.75 239.98 69.75Z" fill="#094065"/>
<circle cx="420" cy="60" r="57" stroke="#094065" stroke-width="6"/>
<path d="M416.557 68.406V75H393.667V69.792L404.671 59.502C405.735 58.494 406.449 57.64 406.813 56.94C407.177 56.212 407.359 55.484 407.359 54.756C407.359 53.804 407.037 53.062 406.393 52.53C405.749 51.998 404.811 51.732 403.579 51.732C402.487 51.732 401.479 51.984 400.555 52.488C399.659 52.964 398.917 53.664 398.329 54.588L392.155 51.144C393.303 49.24 394.913 47.742 396.985 46.65C399.057 45.558 401.507 45.012 404.335 45.012C406.575 45.012 408.549 45.376 410.257 46.104C411.993 46.832 413.337 47.882 414.289 49.254C415.269 50.598 415.759 52.166 415.759 53.958C415.759 55.554 415.409 57.066 414.709 58.494C414.037 59.894 412.721 61.49 410.761 63.282L405.217 68.406H416.557ZM447.333 69.372H442.965V75H434.859V69.372H419.319V63.954L432.507 45.6H441.117L429.147 62.778H435.111V57.78H442.965V62.778H447.333V69.372Z" fill="#094065"/>
<circle cx="60" cy="240" r="57" stroke="#094065" stroke-width="6"/>
<path d="M63.8527 237.36C66.2887 237.864 68.1507 238.872 69.4387 240.384C70.7547 241.868 71.4127 243.674 71.4127 245.802C71.4127 247.538 70.9367 249.148 69.9847 250.632C69.0607 252.116 67.6327 253.32 65.7007 254.244C63.7967 255.14 61.4307 255.588 58.6027 255.588C56.5307 255.588 54.4727 255.336 52.4287 254.832C50.4127 254.328 48.6627 253.614 47.1787 252.69L50.2027 246.432C51.3507 247.216 52.6387 247.818 54.0667 248.238C55.5227 248.658 56.9507 248.868 58.3507 248.868C59.7787 248.868 60.9127 248.602 61.7527 248.07C62.5927 247.538 63.0127 246.782 63.0127 245.802C63.0127 243.898 61.5147 242.946 58.5187 242.946H55.0327V237.696L60.2827 232.026H48.6907V225.6H69.9427V230.808L63.8527 237.36Z" fill="#094065"/>
<circle cx="240" cy="240" r="57" stroke="#094065" stroke-width="6"/>
<path d="M242.826 236.268C244.674 236.268 246.368 236.66 247.908 237.444C249.448 238.2 250.666 239.292 251.562 240.72C252.486 242.12 252.948 243.73 252.948 245.55C252.948 247.538 252.43 249.302 251.394 250.842C250.386 252.354 249 253.53 247.236 254.37C245.5 255.182 243.554 255.588 241.398 255.588C237.198 255.588 233.88 254.342 231.444 251.85C229.008 249.358 227.79 245.774 227.79 241.098C227.79 237.738 228.434 234.854 229.722 232.446C231.038 230.01 232.872 228.162 235.224 226.902C237.576 225.642 240.306 225.012 243.414 225.012C245.094 225.012 246.69 225.194 248.202 225.558C249.714 225.922 251.002 226.454 252.066 227.154L249.042 233.118C247.614 232.11 245.808 231.606 243.624 231.606C241.496 231.606 239.774 232.194 238.458 233.37C237.142 234.546 236.386 236.24 236.19 238.452C237.87 236.996 240.082 236.268 242.826 236.268ZM240.894 249.666C242.07 249.666 243.022 249.33 243.75 248.658C244.506 247.986 244.884 247.076 244.884 245.928C244.884 244.808 244.506 243.912 243.75 243.24C243.022 242.568 242.056 242.232 240.852 242.232C239.648 242.232 238.668 242.582 237.912 243.282C237.156 243.954 236.778 244.85 236.778 245.97C236.778 247.062 237.142 247.958 237.87 248.658C238.626 249.33 239.634 249.666 240.894 249.666Z" fill="#094065"/>
<circle cx="420" cy="240" r="57" stroke="#094065" stroke-width="6"/>
<path d="M411.049 225.6V255H402.733V232.026H397.273V225.6H411.049ZM437.479 239.502C438.823 240.286 439.859 241.252 440.587 242.4C441.315 243.548 441.679 244.864 441.679 246.348C441.679 248.196 441.147 249.82 440.083 251.22C439.019 252.62 437.521 253.698 435.589 254.454C433.657 255.21 431.431 255.588 428.911 255.588C426.391 255.588 424.165 255.21 422.233 254.454C420.301 253.698 418.803 252.62 417.739 251.22C416.675 249.82 416.143 248.196 416.143 246.348C416.143 244.864 416.507 243.548 417.235 242.4C417.963 241.252 418.999 240.286 420.343 239.502C419.335 238.802 418.551 237.948 417.991 236.94C417.459 235.932 417.193 234.812 417.193 233.58C417.193 231.872 417.683 230.374 418.663 229.086C419.643 227.77 421.015 226.762 422.779 226.062C424.571 225.362 426.615 225.012 428.911 225.012C431.207 225.012 433.237 225.362 435.001 226.062C436.793 226.762 438.179 227.77 439.159 229.086C440.139 230.374 440.629 231.872 440.629 233.58C440.629 234.812 440.349 235.932 439.789 236.94C439.257 237.948 438.487 238.802 437.479 239.502ZM428.911 230.85C427.875 230.85 427.035 231.13 426.391 231.69C425.747 232.222 425.425 232.978 425.425 233.958C425.425 234.91 425.733 235.666 426.349 236.226C426.993 236.758 427.847 237.024 428.911 237.024C429.975 237.024 430.829 236.758 431.473 236.226C432.117 235.666 432.439 234.91 432.439 233.958C432.439 232.978 432.117 232.222 431.473 231.69C430.829 231.13 429.975 230.85 428.911 230.85ZM428.911 249.75C430.255 249.75 431.319 249.428 432.103 248.784C432.915 248.112 433.321 247.216 433.321 246.096C433.321 244.976 432.915 244.094 432.103 243.45C431.319 242.778 430.255 242.442 428.911 242.442C427.567 242.442 426.489 242.778 425.677 243.45C424.893 244.094 424.501 244.976 424.501 246.096C424.501 247.216 424.893 248.112 425.677 248.784C426.489 249.428 427.567 249.75 428.911 249.75Z" fill="#094065"/>
<circle cx="60" cy="420" r="57" stroke="#094065" stroke-width="6"/>
<path d="M59.6761 416.31C63.7921 416.31 66.8301 417.15 68.7901 418.83C70.7781 420.51 71.7721 422.75 71.7721 425.55C71.7721 427.37 71.2961 429.05 70.3441 430.59C69.4201 432.102 67.9921 433.32 66.0601 434.244C64.1561 435.14 61.7901 435.588 58.9621 435.588C56.8901 435.588 54.8321 435.336 52.7881 434.832C50.7721 434.328 49.0361 433.614 47.5801 432.69L50.5621 426.432C51.7381 427.216 53.0261 427.818 54.4261 428.238C55.8541 428.658 57.2821 428.868 58.7101 428.868C60.1381 428.868 61.2721 428.602 62.1121 428.07C62.9801 427.51 63.4141 426.74 63.4141 425.76C63.4141 424.78 62.9941 424.038 62.1541 423.534C61.3141 423.03 59.8301 422.778 57.7021 422.778H49.7221L51.1921 405.6H69.9241V412.026H58.0801L57.7021 416.31H59.6761Z" fill="#094065"/>
<circle cx="240" cy="420" r="57" stroke="#094065" stroke-width="6"/>
<path d="M230.721 405.6V435H222.405V412.026H216.945V405.6H230.721ZM248.961 435.588C246.441 435.588 244.201 434.986 242.241 433.782C240.281 432.578 238.741 430.828 237.621 428.532C236.529 426.208 235.983 423.464 235.983 420.3C235.983 417.136 236.529 414.406 237.621 412.11C238.741 409.786 240.281 408.022 242.241 406.818C244.201 405.614 246.441 405.012 248.961 405.012C251.453 405.012 253.679 405.614 255.639 406.818C257.599 408.022 259.125 409.786 260.217 412.11C261.337 414.406 261.897 417.136 261.897 420.3C261.897 423.464 261.337 426.208 260.217 428.532C259.125 430.828 257.599 432.578 255.639 433.782C253.679 434.986 251.453 435.588 248.961 435.588ZM248.961 428.784C250.361 428.784 251.467 428.112 252.279 426.768C253.119 425.396 253.539 423.24 253.539 420.3C253.539 417.36 253.119 415.218 252.279 413.874C251.467 412.502 250.361 411.816 248.961 411.816C247.533 411.816 246.399 412.502 245.559 413.874C244.747 415.218 244.341 417.36 244.341 420.3C244.341 423.24 244.747 425.396 245.559 426.768C246.399 428.112 247.533 428.784 248.961 428.784Z" fill="#094065"/>
<path d="M360 420.45C360 387.313 386.413 360 419.55 360C452.687 360 480 386.413 480 419.55C480 452.687 453.587 480 420.45 480C387.313 480 360 453.587 360 420.45Z" fill="#FF8811"/>
<path d="M416.782 436.098C419.776 434.129 422.487 433.945 425.81 435.115C428.038 436.598 429.604 437.84 430.186 440.484C430.348 442.972 430.088 444.618 428.502 446.582C426.428 448.628 424.692 449.241 421.805 449.4C419.405 449.332 418.068 448.746 416.257 447.106C414.612 445.185 413.983 443.55 414.157 441.013C414.525 438.874 415.152 437.594 416.782 436.098Z" fill="#FFFBF9"/>
<path d="M411.17 391.836C419.749 389.655 429.398 390.092 436.753 395.325C439.282 397.6 441.302 400.595 441.593 404.028C441.725 409.922 440.15 413.89 436.216 418.275C435.171 419.242 434.097 420.163 433.009 421.081C430.295 423.437 429.375 425.135 428.337 428.759H416.258C416.258 423.22 418.187 420.873 421.869 416.858C423.086 415.654 423.085 415.654 424.472 414.577C426.676 412.763 427.637 410.477 428.075 407.693C427.732 405.768 427.111 404.958 425.711 403.597C423.023 401.745 420.462 401.623 417.308 402.025C414.342 402.736 411.842 403.57 409.758 405.858C409.076 406.555 409.075 406.555 408.38 407.267C406.007 407.172 404.169 405.938 402.209 404.711C401.744 404.434 401.744 404.435 401.27 404.152C398.991 402.746 398.991 402.745 398.4 400.976C401.091 396.367 406.269 393.503 411.17 391.836Z" fill="#FFFBF9"/>
</svg>

