<svg width="480" height="480" viewBox="0 0 480 480" fill="none" xmlns="http://www.w3.org/2000/svg">
<path d="M95.7284 11.5242C96.7512 12.3227 97.7667 13.1301 98.7738 13.9475C99.2212 14.3075 99.6682 14.6675 100.129 15.0384C110.939 24.2289 117.976 38.209 119.733 52.1975C120.113 60.0073 120.425 68.2305 118.161 75.7763C117.902 76.7152 117.902 76.7152 117.639 77.6736C115.28 85.5164 111.32 92.535 106.109 98.8311C105.751 99.2754 105.393 99.7197 105.023 100.178C95.8421 111.005 81.8448 118.021 67.8594 119.79C50.2267 120.751 35.2353 117.532 21.2259 106.167C20.7789 105.807 20.332 105.447 19.8714 105.076C9.0608 95.8853 2.02437 81.9052 0.266969 67.9167C-0.112911 60.1069 -0.425198 51.8837 1.83889 44.3379C2.01127 43.7118 2.18366 43.0856 2.36129 42.4406C4.71969 34.5978 8.68039 27.5792 13.8902 21.2831C14.4284 20.6166 14.4284 20.6166 14.9775 19.9365C34.7402 -3.37029 71.5455 -6.21179 95.7284 11.5242ZM25.4176 16.0434C24.9801 16.4086 24.5426 16.7744 24.0915 17.1506C12.1638 27.5137 5.33273 40.8074 4.06786 56.514C3.15196 71.0731 7.89287 85.278 17.3658 96.3935C28.102 108.423 41.5958 115.054 57.7211 116.069C73.4539 116.752 87.489 110.672 99.0667 100.243C110.785 89.092 114.559 75.8659 116.065 60.0571C97.5634 60.0571 79.0619 60.0571 59.9998 60.0571C59.9998 41.5556 59.9998 23.0542 59.9998 3.99205C47.5665 3.99205 34.9906 8.00882 25.4176 16.0434Z" fill="#094065"/>
<path d="M275.728 11.5242C276.751 12.3227 277.767 13.1301 278.774 13.9475C279.221 14.3075 279.668 14.6675 280.129 15.0384C290.939 24.2289 297.976 38.209 299.733 52.1975C300.113 60.0073 300.425 68.2305 298.161 75.7763C297.902 76.7152 297.902 76.7152 297.639 77.6736C295.28 85.5164 291.32 92.535 286.109 98.831C285.751 99.2754 285.393 99.7197 285.023 100.178C275.842 111.004 261.845 118.021 247.859 119.79C230.227 120.751 215.235 117.532 201.226 106.167C200.779 105.807 200.332 105.447 199.871 105.076C189.061 95.8853 182.024 81.9052 180.267 67.9167C179.887 60.1069 179.575 51.8836 181.839 44.3379C182.011 43.7118 182.184 43.0856 182.361 42.4406C184.72 34.5978 188.68 27.5792 193.89 21.2831C194.428 20.6166 194.428 20.6166 194.977 19.9365C214.74 -3.37029 251.546 -6.21179 275.728 11.5242ZM205.418 16.0434C204.98 16.4086 204.543 16.7744 204.091 17.1506C192.164 27.5137 185.333 40.8074 184.068 56.514C183.152 71.0731 187.893 85.278 197.366 96.3935C209.276 109.738 222.319 114.438 240 116.122C240 79.1192 240 42.1163 240 3.99205C227.566 3.99205 214.991 8.00882 205.418 16.0434Z" fill="#094065"/>
<path d="M455.728 11.5241C456.751 12.3227 457.767 13.1301 458.774 13.9475C459.221 14.3075 459.668 14.6675 460.129 15.0384C470.939 24.2289 477.976 38.209 479.733 52.1975C480.113 60.0073 480.425 68.2305 478.161 75.7762C477.902 76.7152 477.902 76.7152 477.639 77.6735C475.28 85.5164 471.32 92.535 466.109 98.831C465.751 99.2753 465.393 99.7197 465.023 100.178C455.842 111.004 441.845 118.021 427.859 119.79C410.227 120.751 395.235 117.532 381.226 106.167C380.779 105.807 380.332 105.447 379.871 105.076C369.061 95.8852 362.024 81.9051 360.267 67.9167C359.887 60.1068 359.575 51.8836 361.839 44.3379C362.011 43.7118 362.184 43.0856 362.361 42.4406C364.72 34.5978 368.68 27.5792 373.89 21.2831C374.428 20.6166 374.428 20.6166 374.977 19.9365C394.74 -3.37029 431.546 -6.21179 455.728 11.5241ZM385.418 16.0434C384.98 16.4086 384.543 16.7743 384.091 17.1506C370.387 29.0573 365.629 42.2698 363.935 60.0571C382.436 60.0571 400.938 60.0571 420 60.0571C420 41.5556 420 23.0542 420 3.99205C407.566 3.99205 394.991 8.00882 385.418 16.0434Z" fill="#094065"/>
<path d="M95.7284 191.484C96.7512 192.283 97.7667 193.091 98.7738 193.909C99.2212 194.269 99.6682 194.63 100.129 195.001C110.939 204.199 117.976 218.191 119.733 232.191C120.113 240.007 120.425 248.237 118.161 255.789C117.902 256.729 117.902 256.729 117.639 257.688C115.28 265.538 111.32 272.562 106.109 278.863C105.751 279.308 105.393 279.753 105.023 280.211C95.8421 291.047 81.8448 298.069 67.8594 299.84C50.2267 300.802 35.2353 297.58 21.2259 286.205C20.7789 285.845 20.332 285.485 19.8714 285.113C9.0608 275.915 2.02437 261.923 0.266969 247.923C-0.112911 240.107 -0.425198 231.877 1.83889 224.325C2.01127 223.698 2.18366 223.071 2.36129 222.426C4.71969 214.577 8.68039 207.552 13.8902 201.251C14.4284 200.584 14.4284 200.584 14.9775 199.903C34.7402 176.577 71.5455 173.733 95.7284 191.484ZM25.4176 196.007C24.9801 196.372 24.5426 196.738 24.0915 197.115C12.1638 207.487 5.33273 220.791 4.06786 236.511C3.15196 251.082 7.89287 265.299 17.3658 276.424C28.102 288.463 41.5958 295.1 57.7211 296.115C73.4539 296.799 87.489 290.714 99.0667 280.277C110.163 269.708 115.423 255.699 116.065 240.581C116.348 226.491 110.878 212.659 101.394 202.3C100.209 201.175 99.0106 200.165 97.7258 199.153C95.1432 201.045 93.5969 203.13 91.8212 205.782C91.0185 206.878 90.3074 207.636 89.2443 208.461C87.6991 209.576 87.6991 209.576 86.7224 211.215C85.6745 212.788 85.6745 212.788 84.1356 214.066C82.5851 215.364 81.6608 216.546 80.5453 218.196C79.6032 219.51 78.4457 220.575 77.2909 221.703C76.7617 222.31 76.2382 222.922 75.719 223.538C74.396 225.107 72.9781 226.544 71.5272 227.996C69.9474 229.617 69.9474 229.617 69.4313 231.667C68.9126 231.667 68.3939 231.667 67.8594 231.667C66.7674 233.024 65.8453 234.462 64.888 235.917C63.6681 237.435 63.6681 237.435 59.9998 240.057C59.9998 221.54 59.9998 203.023 59.9998 183.945C47.5665 183.945 34.9906 187.965 25.4176 196.007Z" fill="#094065"/>
<path d="M275.728 191.524C276.751 192.323 277.767 193.13 278.774 193.948C279.221 194.307 279.668 194.667 280.129 195.038C290.939 204.229 297.976 218.209 299.733 232.197C300.113 240.007 300.425 248.231 298.161 255.776C297.902 256.715 297.902 256.715 297.639 257.674C295.28 265.516 291.32 272.535 286.109 278.831C285.751 279.275 285.393 279.72 285.023 280.178C275.842 291.004 261.845 298.021 247.859 299.79C230.227 300.751 215.235 297.532 201.226 286.167C200.779 285.807 200.332 285.447 199.871 285.076C189.061 275.885 182.024 261.905 180.267 247.917C179.887 240.107 179.575 231.884 181.839 224.338C182.011 223.712 182.184 223.086 182.361 222.441C184.72 214.598 188.68 207.579 193.89 201.283C194.428 200.617 194.428 200.617 194.977 199.937C214.74 176.63 251.546 173.788 275.728 191.524ZM205.418 196.043C204.98 196.409 204.543 196.774 204.091 197.151C192.164 207.514 185.333 220.807 184.068 236.514C183.152 251.073 187.893 265.278 197.366 276.393C208.102 288.423 221.596 295.054 237.721 296.069C253.454 296.752 267.489 290.672 279.067 280.243C290.785 269.092 294.559 255.866 296.065 240.057C277.564 240.057 259.062 240.057 240 240.057C240 221.556 240 203.054 240 183.992C227.566 183.992 214.991 188.009 205.418 196.043Z" fill="#094065"/>
<path d="M455.728 191.484C456.751 192.283 457.767 193.091 458.774 193.909C459.221 194.269 459.668 194.63 460.129 195.001C470.939 204.199 477.976 218.191 479.733 232.191C480.113 240.007 480.425 248.237 478.161 255.789C477.902 256.729 477.902 256.729 477.639 257.688C475.28 265.538 471.32 272.562 466.109 278.863C465.751 279.308 465.393 279.753 465.023 280.211C455.842 291.047 441.845 298.069 427.859 299.84C410.227 300.802 395.235 297.58 381.226 286.205C380.779 285.845 380.332 285.485 379.871 285.113C369.061 275.915 362.024 261.923 360.267 247.923C359.887 240.107 359.575 231.877 361.839 224.325C362.011 223.698 362.184 223.071 362.361 222.426C364.72 214.577 368.68 207.552 373.89 201.251C374.428 200.584 374.428 200.584 374.977 199.903C394.74 176.577 431.546 173.733 455.728 191.484ZM385.418 196.007C384.98 196.372 384.543 196.738 384.091 197.115C372.164 207.487 365.333 220.791 364.068 236.511C363.152 251.082 367.893 265.299 377.366 276.424C388.102 288.463 401.596 295.1 417.721 296.115C432.597 296.762 446.644 291.354 457.726 281.485C458.431 280.793 459.132 280.096 459.822 279.388C459.037 277.487 457.958 276.434 456.416 275.094C455.945 274.68 455.473 274.265 454.988 273.838C454.508 273.42 454.028 273.002 453.534 272.57C452.681 271.807 451.83 271.043 450.98 270.276C450.551 269.89 450.121 269.503 449.678 269.105C448.14 267.711 446.612 266.306 445.086 264.901C443.378 263.329 441.664 261.768 439.911 260.247C437.879 258.483 435.9 256.664 433.92 254.841C431.394 252.516 428.843 250.217 426.287 247.923C425.316 247.05 424.345 246.175 423.373 245.301C422.94 244.912 422.507 244.522 422.061 244.121C420.528 242.733 420.528 242.733 420.451 241.697C420.448 241.265 420.445 240.832 420.441 240.386C420.436 239.891 420.431 239.396 420.426 238.887C420.423 238.339 420.42 237.792 420.416 237.228C420.411 236.655 420.406 236.082 420.401 235.492C420.384 233.588 420.371 231.684 420.358 229.78C420.348 228.464 420.337 227.148 420.325 225.831C420.299 222.715 420.275 219.599 420.253 216.482C420.225 212.587 420.193 208.693 420.161 204.798C420.104 197.847 420.051 190.896 420 183.945C407.566 183.945 394.991 187.965 385.418 196.007Z" fill="#094065"/>
<path d="M95.7284 371.484C96.7512 372.283 97.7667 373.091 98.7738 373.909C99.2212 374.269 99.6682 374.63 100.129 375.001C110.939 384.199 117.976 398.191 119.733 412.191C120.113 420.007 120.425 428.237 118.161 435.789C117.902 436.729 117.902 436.729 117.639 437.688C115.28 445.538 111.32 452.562 106.109 458.863C105.751 459.308 105.393 459.753 105.023 460.211C95.8421 471.047 81.8448 478.069 67.8594 479.84C50.2267 480.802 35.2353 477.58 21.2259 466.205C20.7789 465.845 20.332 465.485 19.8714 465.113C9.0608 455.915 2.02437 441.923 0.266969 427.923C-0.112911 420.107 -0.425198 411.877 1.83889 404.325C2.01127 403.698 2.18366 403.071 2.36129 402.426C4.71969 394.577 8.68039 387.552 13.8902 381.251C14.4284 380.584 14.4284 380.584 14.9775 379.903C34.7402 356.577 71.5455 353.733 95.7284 371.484ZM25.4176 376.007C24.9801 376.372 24.5426 376.738 24.0915 377.115C12.1638 387.487 5.33273 400.791 4.06786 416.511C3.15196 431.082 7.89287 445.299 17.3658 456.424C28.102 468.463 41.5958 475.1 57.7211 476.115C72.5966 476.762 86.6438 471.354 97.7258 461.485C98.4311 460.793 99.1322 460.096 99.8217 459.388C99.0368 457.487 97.9579 456.434 96.4159 455.094C95.9448 454.68 95.4733 454.265 94.9875 453.838C94.5081 453.42 94.0281 453.002 93.534 452.57C92.681 451.807 91.8296 451.043 90.9802 450.276C90.5505 449.89 90.1209 449.503 89.6781 449.105C88.1403 447.711 86.6124 446.306 85.0855 444.901C83.3779 443.329 81.664 441.768 79.9108 440.247C77.8788 438.483 75.8998 436.664 73.9202 434.841C71.3936 432.516 68.8429 430.217 66.2875 427.923C65.316 427.05 64.3446 426.175 63.3732 425.301C62.9404 424.912 62.507 424.522 62.0611 424.121C60.528 422.733 60.528 422.733 60.4515 421.697C60.4478 421.265 60.4447 420.832 60.441 420.386C60.4358 419.891 60.431 419.396 60.4258 418.887C60.4227 418.339 60.4195 417.792 60.4164 417.228C60.4111 416.655 60.4059 416.082 60.4007 415.492C60.3839 413.588 60.3713 411.684 60.3582 409.78C60.3477 408.464 60.3367 407.148 60.3252 405.831C60.299 402.715 60.2754 399.599 60.2529 396.482C60.2246 392.587 60.1926 388.693 60.1607 384.798C60.1041 377.847 60.0512 370.896 59.9998 363.945C47.5665 363.945 34.9906 367.965 25.4176 376.007Z" fill="#094065"/>
<path d="M275.728 371.484C276.751 372.283 277.767 373.091 278.774 373.909C279.221 374.269 279.668 374.63 280.129 375.001C290.939 384.199 297.976 398.191 299.733 412.191C300.113 420.007 300.425 428.237 298.161 435.789C297.902 436.729 297.902 436.729 297.639 437.688C295.28 445.538 291.32 452.562 286.109 458.863C285.751 459.308 285.393 459.753 285.023 460.211C275.842 471.047 261.845 478.069 247.859 479.84C230.227 480.802 215.235 477.58 201.226 466.205C200.779 465.845 200.332 465.485 199.871 465.113C189.061 455.915 182.024 441.923 180.267 427.923C179.887 420.107 179.575 411.877 181.839 404.325C182.011 403.698 182.184 403.071 182.361 402.426C184.72 394.577 188.68 387.552 193.89 381.251C194.428 380.584 194.428 380.584 194.977 379.903C214.74 356.577 251.546 353.733 275.728 371.484ZM205.418 376.007C204.98 376.372 204.543 376.738 204.091 377.115C192.164 387.487 185.333 400.791 184.068 416.511C183.15 431.104 187.911 445.229 197.337 456.403C199.416 458.715 201.607 460.902 203.846 463.059C204.192 462.886 204.537 462.713 204.894 462.534C204.894 462.188 204.894 461.842 204.894 461.485C205.239 461.485 205.585 461.485 205.942 461.485C205.942 461.139 205.942 460.793 205.942 460.437C206.287 460.437 206.633 460.437 206.99 460.437C207.942 459.417 207.942 459.417 208.889 458.142C209.386 457.504 209.386 457.504 209.892 456.852C210.755 455.8 210.755 455.8 210.657 454.668C211.003 454.668 211.349 454.668 211.705 454.668C211.705 454.322 211.705 453.976 211.705 453.619C212.051 453.619 212.397 453.619 212.753 453.619C212.753 453.273 212.753 452.927 212.753 452.57C213.099 452.57 213.445 452.57 213.801 452.57C214.753 451.551 214.753 451.551 215.701 450.276C216.197 449.637 216.197 449.637 216.704 448.986C217.567 447.934 217.567 447.934 217.469 446.802C217.815 446.802 218.161 446.802 218.517 446.802C218.517 446.456 218.517 446.11 218.517 445.753C218.863 445.753 219.209 445.753 219.565 445.753C221.15 444.151 221.15 444.151 221.661 442.082C222.007 442.082 222.352 442.082 222.709 442.082C222.882 441.39 223.055 440.698 223.233 439.985C223.579 439.985 223.924 439.985 224.281 439.985C224.281 439.639 224.281 439.292 224.281 438.936C224.626 438.936 224.972 438.936 225.329 438.936C226.914 437.333 226.914 437.333 227.424 435.265C227.77 435.265 228.116 435.265 228.472 435.265C229.729 433.882 229.729 433.882 230.044 432.118C230.39 432.118 230.736 432.118 231.092 432.118C232.678 430.516 232.678 430.516 233.188 428.448C233.534 428.448 233.88 428.448 234.236 428.448C234.236 428.102 234.236 427.755 234.236 427.399C234.582 427.399 234.928 427.399 235.284 427.399C236.236 426.379 236.236 426.379 237.184 425.105C237.515 424.679 237.846 424.253 238.187 423.814C239.05 422.763 239.05 422.763 238.952 421.63C239.298 421.63 239.644 421.63 240 421.63C240 402.594 240 383.558 240 363.945C227.566 363.945 214.991 367.965 205.418 376.007Z" fill="#094065"/>
<path d="M360 420.45C360 387.313 386.413 360 419.55 360C452.687 360 480 386.413 480 419.55C480 452.687 453.587 480 420.45 480C387.313 480 360 453.587 360 420.45Z" fill="#FF8811"/>
<path d="M416.782 436.098C419.776 434.129 422.487 433.945 425.81 435.115C428.038 436.598 429.604 437.84 430.186 440.484C430.348 442.972 430.088 444.618 428.502 446.582C426.428 448.628 424.692 449.241 421.805 449.4C419.405 449.332 418.068 448.746 416.257 447.106C414.612 445.185 413.983 443.55 414.157 441.013C414.525 438.874 415.152 437.594 416.782 436.098Z" fill="#FFFBF9"/>
<path d="M411.17 391.836C419.749 389.655 429.398 390.092 436.753 395.325C439.282 397.6 441.302 400.595 441.593 404.028C441.725 409.922 440.15 413.89 436.216 418.275C435.171 419.242 434.097 420.163 433.009 421.081C430.295 423.437 429.375 425.135 428.337 428.759H416.258C416.258 423.22 418.187 420.873 421.869 416.858C423.086 415.654 423.085 415.654 424.472 414.577C426.676 412.763 427.637 410.477 428.075 407.693C427.732 405.768 427.111 404.958 425.711 403.597C423.023 401.745 420.462 401.623 417.308 402.025C414.342 402.736 411.842 403.57 409.758 405.858C409.076 406.555 409.075 406.555 408.38 407.267C406.007 407.172 404.169 405.938 402.209 404.711C401.744 404.434 401.744 404.435 401.27 404.152C398.991 402.746 398.991 402.745 398.4 400.976C401.091 396.367 406.269 393.503 411.17 391.836Z" fill="#FFFBF9"/>
</svg>

