<svg width="480" height="480" viewBox="0 0 480 480" fill="none" xmlns="http://www.w3.org/2000/svg">
<g clip-path="url(#clip0_730_259)">
<path d="M240.5 85L419.5 400H61.5C131.45 276.67 170.54 208.34 240.5 85Z" fill="#FF8811"/>
<path d="M425.5 405H54.5L58.72 397.55C93.73 335.71 121.02 287.67 148.31 239.63C175.59 191.58 202.88 143.54 237.89 81.72L239.99 78L425.5 405ZM240 91.39C205.99 151.44 179.25 198.52 152.52 245.6C126.33 291.7 100.15 337.79 67.15 396.06H412.84L240 91.39Z" fill="#094065"/>
<path d="M243.5 85V275H237.5V85H243.5Z" fill="#094065"/>
<path d="M135.23 273.539H347.28V400.519H135.23V273.539Z" fill="#FF8811"/>
<path d="M347.41 270.621V403.511H135.08V270.621H347.41ZM140.6 394.771H341.9V279.361H140.6V394.771Z" fill="#094065"/>
<path d="M241.25 274.359L347.28 400.519C264.47 400.519 218.04 400.519 135.23 400.519L241.25 274.359Z" fill="#FF8811"/>
<path d="M355.879 405.001H126.609L241.249 270.621L355.879 405.001ZM143.539 396.181H338.939L241.239 281.651L143.539 396.181Z" fill="#094065"/>
</g>
<defs>
<clipPath id="clip0_730_259">
<rect width="368" height="324" fill="white" transform="translate(56 78)"/>
</clipPath>
</defs>
</svg>

