<svg id="Layer_1" data-name="Layer 1" xmlns="http://www.w3.org/2000/svg" viewBox="0 0 1024 1024"><defs><style>.cls-1{fill:none;stroke:#28527a;stroke-miterlimit:10;stroke-width:7.4px;}.cls-2{fill:#28527a;}</style></defs><title>new</title><path class="cls-1" d="M40.09,40.09V983.91H983.91V40.09ZM153.31,822.61,512,201.35,870.69,822.61Z"/><path class="cls-2" d="M512,201.35,153.31,822.61H870.69Zm94.22,499.57c-1.42,1.41-2.91,2.83-4.4,4.2a135.73,135.73,0,0,1-183.2,0c-1.49-1.37-3-2.79-4.38-4.2s-2.84-2.9-4.21-4.39a135.73,135.73,0,0,1,0-183.2c1.37-1.49,2.79-3,4.21-4.4s2.89-2.82,4.38-4.19a135.73,135.73,0,0,1,183.2,0q4.47,4.11,8.59,8.59a135.67,135.67,0,0,1,0,183.2C609,698,607.64,699.51,606.22,700.92Z"/></svg>
