<svg width="480" height="480" viewBox="0 0 480 480" fill="none" xmlns="http://www.w3.org/2000/svg">
<g clip-path="url(#clip0_730_296)">
<path d="M292.604 60C292.604 30.9472 269.052 7.3952 239.999 7.3952C210.948 7.3952 187.394 30.9472 187.394 60C187.394 89.0528 210.948 112.605 239.999 112.605V118C207.968 118 182 92.0324 182 60C182 27.9674 207.968 2 239.999 2C272.032 2 298 27.9674 298 60C298 92.0324 272.032 118 239.999 118V112.605C269.052 112.605 292.604 89.0528 292.604 60Z" fill="#0B4267"/>
<path d="M112.605 60C112.605 30.9472 89.0528 7.3952 60.0001 7.3952C30.9474 7.3952 7.39542 30.9472 7.39542 60C7.39542 89.0528 30.9474 112.605 60.0001 112.605V118C27.9676 118 2 92.0324 2 60C2 27.9674 27.9676 2 60.0001 2C92.0324 2 118 27.9674 118 60C118 92.0324 92.0324 118 60.0001 118V112.605C89.0528 112.605 112.605 89.0528 112.605 60Z" fill="#0B4267"/>
<path d="M474.604 58C474.604 28.9472 451.052 5.3952 421.999 5.3952C392.948 5.3952 369.396 28.9472 369.396 58C369.396 87.0528 392.948 110.605 421.999 110.605V116C389.968 116 364 90.0324 364 58C364 25.9674 389.968 0 421.999 0C454.033 0 480 25.9674 480 58C480 90.0324 454.033 116 421.999 116V110.605C451.052 110.605 474.604 87.0528 474.604 58Z" fill="#0B4267"/>
<path d="M251 60.4999C251 66.2989 246.299 71 240.5 71C234.701 71 230 66.2989 230 60.4999C230 54.7011 234.701 50 240.5 50C246.299 50 251 54.7011 251 60.4999Z" fill="#0B4267"/>
<path d="M431 240.499C431 246.299 426.299 251 420.499 251C414.7 251 410 246.299 410 240.499C410 234.7 414.7 230 420.499 230C426.299 230 431 234.7 431 240.499Z" fill="#0B4267"/>
<path d="M74.0001 433C74.0001 440.732 67.7321 447.001 60.0001 447.001C52.2681 447.001 46 440.732 46 433C46 425.268 52.2681 419 60.0001 419C67.7321 419 74.0001 425.268 74.0001 433Z" fill="#0B4267"/>
<path d="M423.999 56.0001H440V59.9999H423.999V76H419.999V59.9999H404V56.0001H419.999V40H423.999V56.0001Z" fill="#0B4267"/>
<path d="M63.0001 238.001H79V241.999H63.0001V258H59.0001V241.999H43V238.001H59.0001V222H63.0001V238.001Z" fill="#0B4267"/>
<path d="M242.001 432.001H258V436.001H242.001V452H238.001V436.001H222V432.001H238.001V416H242.001V432.001Z" fill="#0B4267"/>
<path d="M298 182V298H182V182H298ZM187.396 292.606H292.606V187.394H187.396V292.606Z" fill="#0B4267"/>
<path d="M119 182V298H3V182H119ZM8.39543 292.606H113.605V187.394H8.39543V292.606Z" fill="#0B4267"/>
<path d="M478 182V298H362V182H478ZM367.396 292.606H472.604V187.394H367.396V292.606Z" fill="#0B4267"/>
<path d="M118 478H2L60 362L118 478ZM10.7733 472.126H109.227L60 373.672L10.7733 472.126Z" fill="#0B4267"/>
<path d="M298 478H182L240 362L298 478ZM190.773 472.126H289.227L240 373.672L190.773 472.126Z" fill="#0B4267"/>
<path d="M480 420C480 453.137 453.137 480 420 480C386.863 480 360 453.137 360 420C360 386.863 386.863 360 420 360C453.137 360 480 386.863 480 420Z" fill="url(#paint0_radial_730_296)" stroke="url(#paint1_linear_730_296)"/>
<path d="M416.456 428.781C416.456 426.9 416.749 425.236 417.337 423.786C417.978 422.336 418.751 421.047 419.659 419.919C420.62 418.792 421.634 417.744 422.702 416.778C423.771 415.811 424.756 414.897 425.665 414.039C426.626 413.125 427.399 412.186 427.987 411.219C428.628 410.253 428.948 409.178 428.948 407.997C428.948 406.064 428.147 404.506 426.546 403.325C424.997 402.144 422.915 401.553 420.3 401.553C417.79 401.553 415.548 402.089 413.574 403.164C411.599 404.183 409.97 405.633 408.689 407.514L399 401.794C401.134 398.519 404.097 395.914 407.888 393.981C411.679 391.994 416.269 391 421.661 391C425.665 391 429.188 391.592 432.231 392.772C435.274 393.9 437.648 395.564 439.358 397.767C441.119 399.969 442 402.681 442 405.903C442 407.997 441.68 409.85 441.039 411.461C440.399 413.072 439.57 414.469 438.557 415.65C437.543 416.831 436.447 417.933 435.274 418.953C434.153 419.972 433.084 420.967 432.071 421.933C431.057 422.9 430.202 423.92 429.508 424.994C428.868 426.069 428.547 427.331 428.547 428.781H416.456ZM422.542 449C420.3 449 418.458 448.275 417.017 446.825C415.575 445.375 414.855 443.656 414.855 441.669C414.855 439.628 415.575 437.936 417.017 436.594C418.458 435.197 420.3 434.5 422.542 434.5C424.837 434.5 426.678 435.197 428.067 436.594C429.508 437.936 430.229 439.628 430.229 441.669C430.229 443.656 429.508 445.375 428.067 446.825C426.678 448.275 424.837 449 422.542 449Z" fill="white"/>
</g>
<defs>
<radialGradient id="paint0_radial_730_296" cx="0" cy="0" r="1" gradientTransform="matrix(-140.589 183.824 -117.897 -211.619 458.826 359.447)" gradientUnits="userSpaceOnUse">
<stop stop-color="#FF7F00"/>
<stop offset="1" stop-color="#E77300"/>
</radialGradient>
<linearGradient id="paint1_linear_730_296" x1="461.963" y1="225.397" x2="358.122" y2="293.273" gradientUnits="userSpaceOnUse">
<stop stop-color="white"/>
<stop offset="1" stop-color="white" stop-opacity="0"/>
</linearGradient>
<clipPath id="clip0_730_296">
<rect width="480" height="480" fill="white"/>
</clipPath>
</defs>
</svg>

