<svg width="480" height="480" viewBox="0 0 480 480" fill="none" xmlns="http://www.w3.org/2000/svg">
<path d="M92.1543 91.2004H27.8477L60.001 32.0793L92.1543 91.2004Z" stroke="#094065" stroke-width="6"/>
<line x1="243" y1="25.8" x2="243" y2="94.2" stroke="#094065" stroke-width="6"/>
<path d="M452.801 104.4H387.201L420.001 20.8129L452.801 104.4Z" stroke="#094065" stroke-width="6"/>
<circle cx="59.9996" cy="240" r="26.4" stroke="#094065" stroke-width="6"/>
<line x1="274.197" y1="243.003" x2="205.797" y2="243.003" stroke="#094065" stroke-width="6"/>
<path d="M420 213.6C431.058 213.6 440.941 216.742 447.979 221.668C455.026 226.601 459 233.129 459 240C459 246.871 455.026 253.398 447.979 258.331C440.941 263.258 431.058 266.4 420 266.4C408.942 266.4 399.059 263.258 392.021 258.331C384.974 253.398 381 246.871 381 240C381 233.129 384.974 226.601 392.021 221.668C399.059 216.742 408.942 213.6 420 213.6Z" stroke="#094065" stroke-width="6"/>
<rect x="33" y="393" width="54" height="54" stroke="#094065" stroke-width="6"/>
<line x1="239" y1="390" x2="239" y2="454" stroke="#094065" stroke-width="6"/>
<line x1="272" y1="423" x2="208" y2="423" stroke="#094065" stroke-width="6"/>
<path d="M360 420.45C360 387.313 386.413 360 419.55 360C452.687 360 480 386.413 480 419.55C480 452.687 453.587 480 420.45 480C387.313 480 360 453.587 360 420.45Z" fill="#FF8811"/>
<path d="M416.782 436.098C419.776 434.129 422.487 433.945 425.81 435.115C428.038 436.598 429.604 437.84 430.186 440.484C430.348 442.972 430.088 444.618 428.502 446.582C426.428 448.628 424.692 449.241 421.805 449.4C419.405 449.332 418.068 448.746 416.257 447.106C414.612 445.185 413.983 443.55 414.157 441.013C414.525 438.874 415.152 437.594 416.782 436.098Z" fill="#FFFBF9"/>
<path d="M411.17 391.836C419.749 389.655 429.398 390.092 436.753 395.325C439.282 397.6 441.302 400.595 441.593 404.028C441.725 409.922 440.15 413.89 436.216 418.275C435.171 419.242 434.097 420.163 433.009 421.081C430.295 423.437 429.375 425.135 428.337 428.759H416.258C416.258 423.22 418.187 420.873 421.869 416.858C423.086 415.654 423.085 415.654 424.472 414.577C426.676 412.763 427.637 410.477 428.075 407.693C427.732 405.768 427.111 404.958 425.711 403.597C423.023 401.745 420.462 401.623 417.308 402.025C414.342 402.736 411.842 403.57 409.758 405.858C409.076 406.555 409.075 406.555 408.38 407.267C406.007 407.172 404.169 405.938 402.209 404.711C401.744 404.434 401.744 404.435 401.27 404.152C398.991 402.746 398.991 402.745 398.4 400.976C401.091 396.367 406.269 393.503 411.17 391.836Z" fill="#FFFBF9"/>
</svg>

