<svg id="Layer_1" data-name="Layer 1" xmlns="http://www.w3.org/2000/svg" viewBox="0 0 1024 1024"><defs><style>.cls-1{fill:#28527a;}</style></defs><title>Q</title><path class="cls-1" d="M986.36,986.36H36.56V36.56h949.8ZM43.92,979H979V43.92H43.92Z"/><path class="cls-1" d="M472.76,342.78v49.29C424.37,460.54,377,559.62,365,648.12H296.72c12-89.82,66.75-197.49,108.38-250.74H261.33v-54.6Z"/><path class="cls-1" d="M714.08,397H591.74c-2,16.27-7.22,45.63-9.3,58.12,11.47-9.46,28.79-16.27,55-16.27,60.25,0,94.16,43.49,94.16,101.57,0,59-32.26,113.3-114.77,113.3-60.39,0-104.76-30.92-111.53-85.53h66.26c5.85,21,20.53,34.66,46.66,34.66,31.51,0,46.66-23.25,46.66-57,0-31.89-11.73-54.49-46.81-54.49-28.4,0-39.9,12.32-46.82,30.47l-60-7.72c8.11-38.8,21.23-129.44,26.23-171.35h186Z"/></svg>