<svg id="Layer_1" data-name="Layer 1" xmlns="http://www.w3.org/2000/svg" viewBox="0 0 1024 1024"><defs><style>.cls-1{fill:#28527a;}</style></defs><title>Q</title><path class="cls-1" d="M987.44,986.48H37.52V36.56H987.44ZM44.88,979.12h935.2V43.92H44.88Z"/><path class="cls-1" d="M470.06,342.81v49.3C421.67,460.6,374.29,559.69,362.32,648.2H294c12-89.83,66.75-197.52,108.39-250.78H258.61V342.81Z"/><path class="cls-1" d="M580.68,572.64c5.78,17.85,16.63,29.38,42.23,29.38,43.12,0,47.81-52.33,49.62-86.29-12.87,17.62-37.1,25.65-63.84,25.65-63.18,0-99-43.18-99-98.17,0-59.91,41.69-105.56,112.41-105.56,86.31,0,115.79,66.67,115.79,142.15,0,85.92-22,173.86-118,173.86-71.11,0-100.09-43.35-105.64-81Zm-3.82-132.75C576.86,471,595,490,623.62,490c29.4,0,45.43-15.07,45.43-48.7,0-20.5-8.48-52-46.33-52C592,389.35,576.86,411.44,576.86,439.89Z"/></svg>