<svg id="Layer_1" data-name="Layer 1" xmlns="http://www.w3.org/2000/svg" viewBox="0 0 1024 1024"><defs><style>.cls-1,.cls-2{fill:#28527a;}.cls-2{stroke:#28527a;stroke-miterlimit:10;stroke-width:1.6px;}</style></defs><title>new</title><path class="cls-1" d="M866,903.09h-7q0-15.54,1.65-24.49a55.21,55.21,0,0,1,4.22-14.15q2.57-5.21,13.11-19,8.29-10.8,11.66-20.34a62.84,62.84,0,0,0,3.36-21q0-15.52-8.74-25a28,28,0,0,0-21.36-9.48q-10.92,0-18.21,5.39t-7.3,11q0,3.16,5.14,7.1,7.77,6,7.78,13.14a14.46,14.46,0,0,1-4.11,10.52,13.81,13.81,0,0,1-10.32,4.2,15.83,15.83,0,0,1-12.5-5.93q-5.1-5.92-5.09-15.55,0-15.15,14-27.21t35.19-12q21.74,0,35.9,13.44a43.48,43.48,0,0,1,14.17,32.81,50.51,50.51,0,0,1-4.88,22.4Q909,836.42,894.09,850q-19.37,17.4-23.52,25.7T866,903.09Zm-3.17,28.46a15.28,15.28,0,0,1,11.21,4.61,15.13,15.13,0,0,1,4.61,11.07,16.23,16.23,0,0,1-4.61,11.66,15.53,15.53,0,0,1-22.41.07,16.18,16.18,0,0,1-4.61-11.73,15,15,0,0,1,4.61-11.13A15.38,15.38,0,0,1,862.86,931.55Z"/><path class="cls-2" d="M325.6,668.64H12.8V355.85H325.6ZM18.25,663.19H320.14V361.3H18.25Z"/><path class="cls-2" d="M325.6,1011H12.8V698.21H325.6Zm-307.34-5.45H320.15V703.66H18.26Z"/><path class="cls-2" d="M668.41,1011H355.61V698.21h312.8Zm-307.35-5.46H663V703.66H361.06Z"/><path class="cls-2" d="M667.51,668.64H354.72V355.85H667.51Zm-307.34-5.45H662.06V361.3H360.17Z"/><path class="cls-2" d="M1011.2,668.64H698.4V355.85h312.8Zm-307.34-5.45h301.89V361.3H703.86Z"/><path class="cls-2" d="M325.6,325.79H12.8V13H325.6ZM18.25,320.34H320.14V18.45H18.25Z"/><path class="cls-2" d="M667.51,325.79H354.72V13H667.51Zm-307.34-5.45H662.06V18.45H360.17Z"/><path class="cls-2" d="M1011.2,325.79H698.4V13h312.8Zm-307.34-5.45h301.89V18.45H703.86Z"/><path class="cls-1" d="M854.8,53.57h0A116.32,116.32,0,0,0,738.48,169.89h0A116.31,116.31,0,0,0,854.8,286.2h0A116.31,116.31,0,0,0,971.12,169.89h0A116.32,116.32,0,0,0,854.8,53.57ZM816.22,192l38.58-66.83L893.38,192Z"/><path class="cls-1" d="M512.24,395.93h0A116.31,116.31,0,0,0,395.93,512.24h0A116.31,116.31,0,0,0,512.24,628.56h0A116.32,116.32,0,0,0,628.56,512.24h0A116.31,116.31,0,0,0,512.24,395.93ZM473.66,534.37l38.58-66.83,38.59,66.83Z"/><path class="cls-1" d="M167.46,738.29h0A116.32,116.32,0,0,0,51.14,854.61h0A116.32,116.32,0,0,0,167.46,970.93h0A116.32,116.32,0,0,0,283.78,854.61h0A116.32,116.32,0,0,0,167.46,738.29ZM128.88,876.73l38.58-66.83L206,876.73Z"/><path class="cls-1" d="M51.73,53.78V286.42H284.36V53.78ZM213.41,170.1a44.21,44.21,0,0,1-44.21,44.21h0A44.21,44.21,0,0,1,125,170.1h0a44.21,44.21,0,0,1,44.21-44.21h0a44.21,44.21,0,0,1,44.21,44.21Z"/><path class="cls-1" d="M395.93,738.29V970.93H628.56V738.29ZM557.61,854.61a44.22,44.22,0,0,1-44.21,44.21h0a44.21,44.21,0,0,1-44.21-44.21h0A44.21,44.21,0,0,1,513.4,810.4h0a44.21,44.21,0,0,1,44.21,44.21Z"/><path class="cls-1" d="M738.48,395.93V628.56H971.12V395.93ZM900.16,512.24A44.21,44.21,0,0,1,856,556.45h0a44.21,44.21,0,0,1-44.21-44.21h0A44.22,44.22,0,0,1,856,468h0a44.21,44.21,0,0,1,44.21,44.21Z"/><path class="cls-1" d="M512,68.24,395.21,270.55h233.6Zm-33.21,164V167h65.25v65.25Z"/><path class="cls-1" d="M168.05,407.38,51.24,609.68H284.85Zm-33.22,164V506.17h65.26v65.25Z"/></svg>