<svg width="480" height="480" viewBox="0 0 480 480" fill="none" xmlns="http://www.w3.org/2000/svg">
<path d="M70 70C182.2 70 294.4 70 410 70C410 182.2 410 294.4 410 410C297.8 410 185.6 410 70 410C70 297.8 70 185.6 70 70ZM78.5284 78.5284C78.5284 112.301 78.5284 146.074 78.5284 180.87C112.301 180.87 146.074 180.87 180.87 180.87C180.87 147.097 180.87 113.324 180.87 78.5284C147.097 78.5284 113.324 78.5284 78.5284 78.5284ZM189.398 78.5284C189.398 112.301 189.398 146.074 189.398 180.87C259.382 180.87 329.367 180.87 401.472 180.87C401.472 147.097 401.472 113.324 401.472 78.5284C331.487 78.5284 261.503 78.5284 189.398 78.5284ZM78.5284 189.398C78.5284 259.382 78.5284 329.367 78.5284 401.472C148.888 401.472 219.247 401.472 291.739 401.472C291.739 368.074 291.739 334.677 291.739 300.268C255.152 300.268 218.565 300.268 180.87 300.268C180.87 263.681 180.87 227.094 180.87 189.398C147.097 189.398 113.324 189.398 78.5284 189.398ZM189.398 189.398C189.398 223.171 189.398 256.943 189.398 291.739C223.171 291.739 256.943 291.739 291.739 291.739C291.739 257.967 291.739 224.194 291.739 189.398C257.967 189.398 224.194 189.398 189.398 189.398ZM300.268 189.398C300.268 223.171 300.268 256.943 300.268 291.739C333.665 291.739 367.062 291.739 401.472 291.739C401.472 257.967 401.472 224.194 401.472 189.398C368.074 189.398 334.677 189.398 300.268 189.398ZM300.268 300.268C300.268 333.665 300.268 367.062 300.268 401.472C333.665 401.472 367.062 401.472 401.472 401.472C401.472 368.074 401.472 334.677 401.472 300.268C368.074 300.268 334.677 300.268 300.268 300.268Z" fill="#094065"/>
</svg>

