<svg width="480" height="480" viewBox="0 0 480 480" fill="none" xmlns="http://www.w3.org/2000/svg">
<path d="M152.572 281.714C181.235 281.714 209.898 281.714 239.429 281.714C239.429 310.377 239.429 339.04 239.429 368.571C210.767 368.571 182.104 368.571 152.572 368.571C152.572 339.909 152.572 311.246 152.572 281.714Z" fill="#F7941E" stroke="white" stroke-width="4"/>
<path d="M152.572 108C181.235 108 209.898 108 239.429 108C239.429 136.663 239.429 165.326 239.429 194.857C210.767 194.857 182.104 194.857 152.572 194.857C152.572 166.194 152.572 137.531 152.572 108Z" fill="#939598" stroke="white" stroke-width="4"/>
<path d="M239.428 194.857C268.091 194.857 296.753 194.857 326.285 194.857C326.285 223.52 326.285 252.183 326.285 281.714C297.622 281.714 268.959 281.714 239.428 281.714C239.428 253.051 239.428 224.389 239.428 194.857Z" fill="#EC008C" stroke="white" stroke-width="4"/>
<path d="M152.572 194.857C181.235 194.857 209.898 194.857 239.429 194.857C239.429 223.52 239.429 252.183 239.429 281.714C210.767 281.714 182.104 281.714 152.572 281.714C152.572 253.051 152.572 224.389 152.572 194.857Z" fill="#00BDF2" stroke="white" stroke-width="4"/>
<path d="M326.285 194.857C354.948 194.857 383.611 194.857 413.142 194.857C413.142 223.52 413.142 252.183 413.142 281.714C384.479 281.714 355.817 281.714 326.285 281.714C326.285 253.051 326.285 224.389 326.285 194.857Z" fill="#8DC63F" stroke="white" stroke-width="4"/>
<path d="M65.7148 194.857C94.3777 194.857 123.041 194.857 152.572 194.857C152.572 223.52 152.572 252.183 152.572 281.714C123.909 281.714 95.2463 281.714 65.7148 281.714C65.7148 253.051 65.7148 224.389 65.7148 194.857Z" fill="#AA5E51" stroke="white" stroke-width="4"/>
</svg>

