<svg width="480" height="480" viewBox="0 0 480 480" fill="none" xmlns="http://www.w3.org/2000/svg">
<rect x="3" y="3" width="114" height="114" stroke="#094065" stroke-width="6"/>
<line x1="16.1992" y1="59.2002" x2="103.799" y2="59.2002" stroke="#FF8811" stroke-width="4"/>
<circle cx="52.7992" cy="52.2001" r="3.6" fill="#FF8811"/>
<circle cx="52.7992" cy="67.8002" r="3.6" fill="#FF8811"/>
<circle cx="67.1996" cy="52.2001" r="3.6" fill="#FF8811"/>
<circle cx="67.1996" cy="67.8002" r="3.6" fill="#FF8811"/>
<rect x="183" y="3" width="114" height="114" stroke="#094065" stroke-width="6"/>
<circle cx="232.799" cy="52.2001" r="3.6" fill="#FF8811"/>
<circle cx="232.799" cy="67.8002" r="3.6" fill="#FF8811"/>
<circle cx="247.2" cy="52.2001" r="3.6" fill="#FF8811"/>
<circle cx="247.2" cy="67.8002" r="3.6" fill="#FF8811"/>
<circle cx="239.999" cy="60.0002" r="38.8" stroke="#FF8811" stroke-width="4"/>
<rect x="363" y="3" width="114" height="114" stroke="#094065" stroke-width="6"/>
<circle cx="419.999" cy="60.0002" r="38.8" stroke="#FF8811" stroke-width="4"/>
<line x1="371.4" y1="60.3999" x2="468.6" y2="60.3999" stroke="#FF8811" stroke-width="4"/>
<rect x="3" y="183" width="114" height="114" stroke="#094065" stroke-width="6"/>
<circle cx="59.9992" cy="240" r="38.8" stroke="#FF8811" stroke-width="4"/>
<line x1="11.4004" y1="240.4" x2="108.6" y2="240.4" stroke="#FF8811" stroke-width="4"/>
<rect x="183" y="183" width="114" height="114" stroke="#094065" stroke-width="6"/>
<circle cx="239.999" cy="240" r="38.8" stroke="#FF8811" stroke-width="4"/>
<path d="M215.988 215.45L264.01 215.45L239.999 272.635L215.988 215.45Z" stroke="#FF8811" stroke-width="4"/>
<rect x="363" y="183" width="114" height="114" stroke="#094065" stroke-width="6"/>
<path d="M393.008 216.65L446.993 216.65L420.001 274.285L393.008 216.65Z" stroke="#FF8811" stroke-width="4"/>
<line x1="384.6" y1="240.4" x2="455.4" y2="240.4" stroke="#FF8811" stroke-width="4"/>
<rect x="3" y="363" width="114" height="114" stroke="#094065" stroke-width="6"/>
<circle cx="52.1996" cy="411.6" r="3.6" fill="#FF8811"/>
<circle cx="52.1996" cy="427.2" r="3.6" fill="#FF8811"/>
<circle cx="66.6" cy="411.6" r="3.6" fill="#FF8811"/>
<circle cx="66.6" cy="427.2" r="3.6" fill="#FF8811"/>
<circle cx="59.3996" cy="419.4" r="38.8" stroke="#FF8811" stroke-width="4"/>
<rect x="183" y="363" width="114" height="114" stroke="#094065" stroke-width="6"/>
<path d="M213.008 396.65L266.993 396.65L240.001 454.285L213.008 396.65Z" stroke="#FF8811" stroke-width="4"/>
<circle cx="232.799" cy="412.2" r="3.6" fill="#FF8811"/>
<circle cx="232.799" cy="427.8" r="3.6" fill="#FF8811"/>
<circle cx="247.2" cy="412.2" r="3.6" fill="#FF8811"/>
<circle cx="247.2" cy="427.8" r="3.6" fill="#FF8811"/>
<rect width="120" height="120" transform="translate(360 360)" fill="#FF8811"/>
<path d="M417.355 436.867C420.379 434.878 423.117 434.692 426.473 435.874C428.724 437.372 430.306 438.626 430.893 441.298C431.058 443.81 430.795 445.473 429.192 447.457C427.097 449.524 425.344 450.143 422.428 450.303C420.004 450.235 418.654 449.642 416.824 447.986C415.162 446.046 414.527 444.394 414.702 441.831C415.074 439.671 415.708 438.378 417.355 436.867Z" fill="#FFFBF9"/>
<path d="M411.686 392.157C420.351 389.955 430.097 390.396 437.527 395.681C440.082 397.979 442.122 401.005 442.416 404.472C442.549 410.426 440.958 414.435 436.984 418.864C435.929 419.84 434.844 420.771 433.745 421.698C431.003 424.078 430.074 425.793 429.027 429.454H416.825C416.825 423.859 418.773 421.488 422.493 417.433C423.722 416.217 423.721 416.216 425.122 415.129C427.348 413.297 428.319 410.987 428.761 408.175C428.415 406.231 427.787 405.412 426.374 404.038C423.659 402.167 421.072 402.043 417.886 402.449C414.89 403.167 412.364 404.01 410.26 406.322C409.57 407.026 409.57 407.026 408.867 407.744C406.471 407.648 404.614 406.402 402.634 405.163C402.165 404.883 402.164 404.883 401.686 404.599C399.384 403.177 399.384 403.177 398.787 401.39C401.505 396.734 406.735 393.842 411.686 392.157Z" fill="#FFFBF9"/>
</svg>

