<svg width="480" height="480" viewBox="0 0 480 480" fill="none" xmlns="http://www.w3.org/2000/svg">
<circle cx="60" cy="60" r="57" stroke="#094065" stroke-width="6"/>
<path d="M59.6761 56.31C63.7921 56.31 66.8301 57.15 68.7901 58.83C70.7781 60.51 71.7721 62.75 71.7721 65.55C71.7721 67.37 71.2961 69.05 70.3441 70.59C69.4201 72.102 67.9921 73.32 66.0601 74.244C64.1561 75.14 61.7901 75.588 58.9621 75.588C56.8901 75.588 54.8321 75.336 52.7881 74.832C50.7721 74.328 49.0361 73.614 47.5801 72.69L50.5621 66.432C51.7381 67.216 53.0261 67.818 54.4261 68.238C55.8541 68.658 57.2821 68.868 58.7101 68.868C60.1381 68.868 61.2721 68.602 62.1121 68.07C62.9801 67.51 63.4141 66.74 63.4141 65.76C63.4141 64.78 62.9941 64.038 62.1541 63.534C61.3141 63.03 59.8301 62.778 57.7021 62.778H49.7221L51.1921 45.6H69.9241V52.026H58.0801L57.7021 56.31H59.6761Z" fill="#094065"/>
<circle cx="240" cy="60" r="57" stroke="#094065" stroke-width="6"/>
<path d="M230.721 45.6V75H222.405V52.026H216.945V45.6H230.721ZM248.961 75.588C246.441 75.588 244.201 74.986 242.241 73.782C240.281 72.578 238.741 70.828 237.621 68.532C236.529 66.208 235.983 63.464 235.983 60.3C235.983 57.136 236.529 54.406 237.621 52.11C238.741 49.786 240.281 48.022 242.241 46.818C244.201 45.614 246.441 45.012 248.961 45.012C251.453 45.012 253.679 45.614 255.639 46.818C257.599 48.022 259.125 49.786 260.217 52.11C261.337 54.406 261.897 57.136 261.897 60.3C261.897 63.464 261.337 66.208 260.217 68.532C259.125 70.828 257.599 72.578 255.639 73.782C253.679 74.986 251.453 75.588 248.961 75.588ZM248.961 68.784C250.361 68.784 251.467 68.112 252.279 66.768C253.119 65.396 253.539 63.24 253.539 60.3C253.539 57.36 253.119 55.218 252.279 53.874C251.467 52.502 250.361 51.816 248.961 51.816C247.533 51.816 246.399 52.502 245.559 53.874C244.747 55.218 244.341 57.36 244.341 60.3C244.341 63.24 244.747 65.396 245.559 66.768C246.399 68.112 247.533 68.784 248.961 68.784Z" fill="#094065"/>
<circle cx="420" cy="60" r="57" stroke="#094065" stroke-width="6"/>
<path d="M418.542 45.012C422.77 45.012 426.102 46.258 428.538 48.75C430.974 51.242 432.192 54.826 432.192 59.502C432.192 62.862 431.534 65.76 430.218 68.196C428.93 70.604 427.096 72.438 424.716 73.698C422.364 74.958 419.634 75.588 416.526 75.588C414.874 75.588 413.292 75.392 411.78 75C410.268 74.636 408.98 74.118 407.916 73.446L410.94 67.482C412.368 68.49 414.174 68.994 416.358 68.994C418.458 68.994 420.152 68.42 421.44 67.272C422.756 66.096 423.526 64.402 423.75 62.19C422.07 63.618 419.872 64.332 417.156 64.332C415.308 64.332 413.614 63.954 412.074 63.198C410.534 62.414 409.302 61.322 408.378 59.922C407.482 58.494 407.034 56.87 407.034 55.05C407.034 53.062 407.538 51.312 408.546 49.8C409.582 48.26 410.968 47.084 412.704 46.272C414.468 45.432 416.414 45.012 418.542 45.012ZM419.13 58.368C420.334 58.368 421.314 58.032 422.07 57.36C422.826 56.66 423.204 55.75 423.204 54.63C423.204 53.538 422.826 52.656 422.07 51.984C421.342 51.284 420.348 50.934 419.088 50.934C417.912 50.934 416.946 51.27 416.19 51.942C415.462 52.614 415.098 53.524 415.098 54.672C415.098 55.792 415.462 56.688 416.19 57.36C416.946 58.032 417.926 58.368 419.13 58.368Z" fill="#094065"/>
<circle cx="60" cy="240" r="57" stroke="#094065" stroke-width="6"/>
<path d="M51.0494 225.6V255H42.7334V232.026H37.2734V225.6H51.0494ZM77.4789 239.502C78.8229 240.286 79.8589 241.252 80.5869 242.4C81.3149 243.548 81.6789 244.864 81.6789 246.348C81.6789 248.196 81.1469 249.82 80.0829 251.22C79.0189 252.62 77.5209 253.698 75.5889 254.454C73.6569 255.21 71.4309 255.588 68.9109 255.588C66.3909 255.588 64.1649 255.21 62.2329 254.454C60.3009 253.698 58.8029 252.62 57.7389 251.22C56.6749 249.82 56.1429 248.196 56.1429 246.348C56.1429 244.864 56.5069 243.548 57.2349 242.4C57.9629 241.252 58.9989 240.286 60.3429 239.502C59.3349 238.802 58.5509 237.948 57.9909 236.94C57.4589 235.932 57.1929 234.812 57.1929 233.58C57.1929 231.872 57.6829 230.374 58.6629 229.086C59.6429 227.77 61.0149 226.762 62.7789 226.062C64.5709 225.362 66.6149 225.012 68.9109 225.012C71.2069 225.012 73.2369 225.362 75.0009 226.062C76.7929 226.762 78.1789 227.77 79.1589 229.086C80.1389 230.374 80.6289 231.872 80.6289 233.58C80.6289 234.812 80.3489 235.932 79.7889 236.94C79.2569 237.948 78.4869 238.802 77.4789 239.502ZM68.9109 230.85C67.8749 230.85 67.0349 231.13 66.3909 231.69C65.7469 232.222 65.4249 232.978 65.4249 233.958C65.4249 234.91 65.7329 235.666 66.3489 236.226C66.9929 236.758 67.8469 237.024 68.9109 237.024C69.9749 237.024 70.8289 236.758 71.4729 236.226C72.1169 235.666 72.4389 234.91 72.4389 233.958C72.4389 232.978 72.1169 232.222 71.4729 231.69C70.8289 231.13 69.9749 230.85 68.9109 230.85ZM68.9109 249.75C70.2549 249.75 71.3189 249.428 72.1029 248.784C72.9149 248.112 73.3209 247.216 73.3209 246.096C73.3209 244.976 72.9149 244.094 72.1029 243.45C71.3189 242.778 70.2549 242.442 68.9109 242.442C67.5669 242.442 66.4889 242.778 65.6769 243.45C64.8929 244.094 64.5009 244.976 64.5009 246.096C64.5009 247.216 64.8929 248.112 65.6769 248.784C66.4889 249.428 67.5669 249.75 68.9109 249.75Z" fill="#094065"/>
<circle cx="240" cy="240" r="57" stroke="#094065" stroke-width="6"/>
<path d="M231.829 225.6V255H223.513V232.026H218.053V225.6H231.829ZM260.988 225.6V230.808L250.614 255H241.542L251.454 232.194H243.726V236.73H236.628V225.6H260.988Z" fill="#094065"/>
<circle cx="420" cy="240" r="57" stroke="#094065" stroke-width="6"/>
<path d="M408.729 237.36C411.165 237.864 413.027 238.872 414.315 240.384C415.631 241.868 416.289 243.674 416.289 245.802C416.289 247.538 415.813 249.148 414.861 250.632C413.937 252.116 412.509 253.32 410.577 254.244C408.673 255.14 406.307 255.588 403.479 255.588C401.407 255.588 399.349 255.336 397.305 254.832C395.289 254.328 393.539 253.614 392.055 252.69L395.079 246.432C396.227 247.216 397.515 247.818 398.943 248.238C400.399 248.658 401.827 248.868 403.227 248.868C404.655 248.868 405.789 248.602 406.629 248.07C407.469 247.538 407.889 246.782 407.889 245.802C407.889 243.898 406.391 242.946 403.395 242.946H399.909V237.696L405.159 232.026H393.567V225.6H414.819V230.808L408.729 237.36ZM447.517 249.372H443.149V255H435.043V249.372H419.503V243.954L432.691 225.6H441.301L429.331 242.778H435.295V237.78H443.149V242.778H447.517V249.372Z" fill="#094065"/>
<circle cx="60" cy="420" r="57" stroke="#094065" stroke-width="6"/>
<path d="M50.8819 417.36C53.3179 417.864 55.1799 418.872 56.4679 420.384C57.7839 421.868 58.4419 423.674 58.4419 425.802C58.4419 427.538 57.9659 429.148 57.0139 430.632C56.0899 432.116 54.6619 433.32 52.7299 434.244C50.8259 435.14 48.4599 435.588 45.6319 435.588C43.5599 435.588 41.5019 435.336 39.4579 434.832C37.4419 434.328 35.6919 433.614 34.2079 432.69L37.2319 426.432C38.3799 427.216 39.6679 427.818 41.0959 428.238C42.5519 428.658 43.9799 428.868 45.3799 428.868C46.8079 428.868 47.9419 428.602 48.7819 428.07C49.6219 427.538 50.0419 426.782 50.0419 425.802C50.0419 423.898 48.5439 422.946 45.5479 422.946H42.0619V417.696L47.3119 412.026H35.7199V405.6H56.9719V410.808L50.8819 417.36ZM76.8235 417.36C79.2595 417.864 81.1215 418.872 82.4095 420.384C83.7255 421.868 84.3835 423.674 84.3835 425.802C84.3835 427.538 83.9075 429.148 82.9555 430.632C82.0315 432.116 80.6035 433.32 78.6715 434.244C76.7675 435.14 74.4015 435.588 71.5735 435.588C69.5015 435.588 67.4435 435.336 65.3995 434.832C63.3835 434.328 61.6335 433.614 60.1495 432.69L63.1735 426.432C64.3215 427.216 65.6095 427.818 67.0375 428.238C68.4935 428.658 69.9215 428.868 71.3215 428.868C72.7495 428.868 73.8835 428.602 74.7235 428.07C75.5635 427.538 75.9835 426.782 75.9835 425.802C75.9835 423.898 74.4855 422.946 71.4895 422.946H68.0035V417.696L73.2535 412.026H61.6615V405.6H82.9135V410.808L76.8235 417.36Z" fill="#094065"/>
<circle cx="240" cy="420" r="57" stroke="#094065" stroke-width="6"/>
<path d="M228.769 416.268C230.617 416.268 232.311 416.66 233.851 417.444C235.391 418.2 236.609 419.292 237.505 420.72C238.429 422.12 238.891 423.73 238.891 425.55C238.891 427.538 238.373 429.302 237.337 430.842C236.329 432.354 234.943 433.53 233.179 434.37C231.443 435.182 229.497 435.588 227.341 435.588C223.141 435.588 219.823 434.342 217.387 431.85C214.951 429.358 213.733 425.774 213.733 421.098C213.733 417.738 214.377 414.854 215.665 412.446C216.981 410.01 218.815 408.162 221.167 406.902C223.519 405.642 226.249 405.012 229.357 405.012C231.037 405.012 232.633 405.194 234.145 405.558C235.657 405.922 236.945 406.454 238.009 407.154L234.985 413.118C233.557 412.11 231.751 411.606 229.567 411.606C227.439 411.606 225.717 412.194 224.401 413.37C223.085 414.546 222.329 416.24 222.133 418.452C223.813 416.996 226.025 416.268 228.769 416.268ZM226.837 429.666C228.013 429.666 228.965 429.33 229.693 428.658C230.449 427.986 230.827 427.076 230.827 425.928C230.827 424.808 230.449 423.912 229.693 423.24C228.965 422.568 227.999 422.232 226.795 422.232C225.591 422.232 224.611 422.582 223.855 423.282C223.099 423.954 222.721 424.85 222.721 425.97C222.721 427.062 223.085 427.958 223.813 428.658C224.569 429.33 225.577 429.666 226.837 429.666ZM256.884 416.268C258.732 416.268 260.426 416.66 261.966 417.444C263.506 418.2 264.724 419.292 265.62 420.72C266.544 422.12 267.006 423.73 267.006 425.55C267.006 427.538 266.488 429.302 265.452 430.842C264.444 432.354 263.058 433.53 261.294 434.37C259.558 435.182 257.612 435.588 255.456 435.588C251.256 435.588 247.938 434.342 245.502 431.85C243.066 429.358 241.848 425.774 241.848 421.098C241.848 417.738 242.492 414.854 243.78 412.446C245.096 410.01 246.93 408.162 249.282 406.902C251.634 405.642 254.364 405.012 257.472 405.012C259.152 405.012 260.748 405.194 262.26 405.558C263.772 405.922 265.06 406.454 266.124 407.154L263.1 413.118C261.672 412.11 259.866 411.606 257.682 411.606C255.554 411.606 253.832 412.194 252.516 413.37C251.2 414.546 250.444 416.24 250.248 418.452C251.928 416.996 254.14 416.268 256.884 416.268ZM254.952 429.666C256.128 429.666 257.08 429.33 257.808 428.658C258.564 427.986 258.942 427.076 258.942 425.928C258.942 424.808 258.564 423.912 257.808 423.24C257.08 422.568 256.114 422.232 254.91 422.232C253.706 422.232 252.726 422.582 251.97 423.282C251.214 423.954 250.836 424.85 250.836 425.97C250.836 427.062 251.2 427.958 251.928 428.658C252.684 429.33 253.692 429.666 254.952 429.666Z" fill="#094065"/>
<path d="M360 420.45C360 387.313 386.413 360 419.55 360C452.687 360 480 386.413 480 419.55C480 452.687 453.587 480 420.45 480C387.313 480 360 453.587 360 420.45Z" fill="#FF8811"/>
<path d="M416.782 436.098C419.776 434.129 422.487 433.945 425.81 435.116C428.038 436.598 429.604 437.84 430.186 440.485C430.348 442.972 430.088 444.618 428.502 446.583C426.428 448.629 424.692 449.241 421.805 449.4C419.405 449.332 418.068 448.746 416.257 447.107C414.612 445.185 413.983 443.55 414.157 441.013C414.525 438.875 415.152 437.594 416.782 436.098Z" fill="#FFFBF9"/>
<path d="M411.17 391.836C419.749 389.655 429.398 390.092 436.753 395.325C439.282 397.6 441.302 400.595 441.593 404.028C441.725 409.922 440.15 413.89 436.216 418.275C435.171 419.242 434.097 420.163 433.009 421.081C430.295 423.438 429.375 425.135 428.337 428.759H416.258C416.258 423.22 418.187 420.873 421.869 416.859C423.086 415.654 423.085 415.654 424.472 414.577C426.676 412.764 427.637 410.477 428.075 407.693C427.732 405.768 427.111 404.958 425.711 403.598C423.023 401.746 420.462 401.623 417.308 402.025C414.342 402.736 411.842 403.57 409.758 405.858C409.076 406.556 409.075 406.555 408.38 407.267C406.007 407.172 404.169 405.938 402.209 404.711C401.744 404.434 401.744 404.435 401.27 404.153C398.991 402.746 398.991 402.745 398.4 400.976C401.091 396.367 406.269 393.503 411.17 391.836Z" fill="#FFFBF9"/>
</svg>

