<svg width="480" height="480" viewBox="0 0 480 480" fill="none" xmlns="http://www.w3.org/2000/svg">
<circle cx="60" cy="60" r="57" stroke="#094065" stroke-width="6"/>
<path d="M65.5173 45.6V75H57.2013V52.026H51.7413V45.6H65.5173Z" fill="#094065"/>
<circle cx="240" cy="60" r="57" stroke="#094065" stroke-width="6"/>
<path d="M242.826 56.268C244.674 56.268 246.368 56.66 247.908 57.444C249.448 58.2 250.666 59.292 251.562 60.72C252.486 62.12 252.948 63.73 252.948 65.55C252.948 67.538 252.43 69.302 251.394 70.842C250.386 72.354 249 73.53 247.236 74.37C245.5 75.182 243.554 75.588 241.398 75.588C237.198 75.588 233.88 74.342 231.444 71.85C229.008 69.358 227.79 65.774 227.79 61.098C227.79 57.738 228.434 54.854 229.722 52.446C231.038 50.01 232.872 48.162 235.224 46.902C237.576 45.642 240.306 45.012 243.414 45.012C245.094 45.012 246.69 45.194 248.202 45.558C249.714 45.922 251.002 46.454 252.066 47.154L249.042 53.118C247.614 52.11 245.808 51.606 243.624 51.606C241.496 51.606 239.774 52.194 238.458 53.37C237.142 54.546 236.386 56.24 236.19 58.452C237.87 56.996 240.082 56.268 242.826 56.268ZM240.894 69.666C242.07 69.666 243.022 69.33 243.75 68.658C244.506 67.986 244.884 67.076 244.884 65.928C244.884 64.808 244.506 63.912 243.75 63.24C243.022 62.568 242.056 62.232 240.852 62.232C239.648 62.232 238.668 62.582 237.912 63.282C237.156 63.954 236.778 64.85 236.778 65.97C236.778 67.062 237.142 67.958 237.87 68.658C238.626 69.33 239.634 69.666 240.894 69.666Z" fill="#094065"/>
<circle cx="420" cy="60" r="57" stroke="#094065" stroke-width="6"/>
<path d="M434.444 69.372H430.076V75H421.97V69.372H406.43V63.954L419.618 45.6H428.228L416.258 62.778H422.222V57.78H430.076V62.778H434.444V69.372Z" fill="#094065"/>
<circle cx="60" cy="240" r="57" stroke="#094065" stroke-width="6"/>
<path d="M58.5423 225.012C62.7703 225.012 66.1023 226.258 68.5383 228.75C70.9743 231.242 72.1923 234.826 72.1923 239.502C72.1923 242.862 71.5343 245.76 70.2183 248.196C68.9303 250.604 67.0963 252.438 64.7163 253.698C62.3643 254.958 59.6343 255.588 56.5263 255.588C54.8743 255.588 53.2923 255.392 51.7803 255C50.2683 254.636 48.9803 254.118 47.9163 253.446L50.9403 247.482C52.3683 248.49 54.1743 248.994 56.3583 248.994C58.4583 248.994 60.1523 248.42 61.4403 247.272C62.7563 246.096 63.5263 244.402 63.7503 242.19C62.0703 243.618 59.8723 244.332 57.1563 244.332C55.3083 244.332 53.6143 243.954 52.0743 243.198C50.5343 242.414 49.3023 241.322 48.3783 239.922C47.4823 238.494 47.0343 236.87 47.0343 235.05C47.0343 233.062 47.5383 231.312 48.5463 229.8C49.5823 228.26 50.9683 227.084 52.7043 226.272C54.4683 225.432 56.4143 225.012 58.5423 225.012ZM59.1303 238.368C60.3343 238.368 61.3143 238.032 62.0703 237.36C62.8263 236.66 63.2043 235.75 63.2043 234.63C63.2043 233.538 62.8263 232.656 62.0703 231.984C61.3423 231.284 60.3483 230.934 59.0883 230.934C57.9123 230.934 56.9463 231.27 56.1903 231.942C55.4623 232.614 55.0983 233.524 55.0983 234.672C55.0983 235.792 55.4623 236.688 56.1903 237.36C56.9463 238.032 57.9263 238.368 59.1303 238.368Z" fill="#094065"/>
<circle cx="240" cy="240" r="57" stroke="#094065" stroke-width="6"/>
<path d="M252.057 225.6V230.808L241.683 255H232.611L242.523 232.194H234.795V236.73H227.697V225.6H252.057Z" fill="#094065"/>
<circle cx="420" cy="240" r="57" stroke="#094065" stroke-width="6"/>
<path d="M412.526 225.6V255H404.21V232.026H398.75V225.6H412.526ZM440.509 248.406V255H417.619V249.792L428.623 239.502C429.687 238.494 430.401 237.64 430.765 236.94C431.129 236.212 431.311 235.484 431.311 234.756C431.311 233.804 430.989 233.062 430.345 232.53C429.701 231.998 428.763 231.732 427.531 231.732C426.439 231.732 425.431 231.984 424.507 232.488C423.611 232.964 422.869 233.664 422.281 234.588L416.107 231.144C417.255 229.24 418.865 227.742 420.937 226.65C423.009 225.558 425.459 225.012 428.287 225.012C430.527 225.012 432.501 225.376 434.209 226.104C435.945 226.832 437.289 227.882 438.241 229.254C439.221 230.598 439.711 232.166 439.711 233.958C439.711 235.554 439.361 237.066 438.661 238.494C437.989 239.894 436.673 241.49 434.713 243.282L429.169 248.406H440.509Z" fill="#094065"/>
<circle cx="60" cy="420" r="57" stroke="#094065" stroke-width="6"/>
<path d="M50.7213 405.6V435H42.4053V412.026H36.9453V405.6H50.7213ZM68.9608 435.588C66.4408 435.588 64.2008 434.986 62.2408 433.782C60.2808 432.578 58.7408 430.828 57.6208 428.532C56.5288 426.208 55.9828 423.464 55.9828 420.3C55.9828 417.136 56.5288 414.406 57.6208 412.11C58.7408 409.786 60.2808 408.022 62.2408 406.818C64.2008 405.614 66.4408 405.012 68.9608 405.012C71.4528 405.012 73.6788 405.614 75.6388 406.818C77.5988 408.022 79.1248 409.786 80.2168 412.11C81.3368 414.406 81.8968 417.136 81.8968 420.3C81.8968 423.464 81.3368 426.208 80.2168 428.532C79.1248 430.828 77.5988 432.578 75.6388 433.782C73.6788 434.986 71.4528 435.588 68.9608 435.588ZM68.9608 428.784C70.3608 428.784 71.4668 428.112 72.2788 426.768C73.1188 425.396 73.5388 423.24 73.5388 420.3C73.5388 417.36 73.1188 415.218 72.2788 413.874C71.4668 412.502 70.3608 411.816 68.9608 411.816C67.5328 411.816 66.3988 412.502 65.5588 413.874C64.7468 415.218 64.3408 417.36 64.3408 420.3C64.3408 423.24 64.7468 425.396 65.5588 426.768C66.3988 428.112 67.5328 428.784 68.9608 428.784Z" fill="#094065"/>
<circle cx="240" cy="420" r="57" stroke="#094065" stroke-width="6"/>
<path d="M232.341 405.6V435H224.025V412.026H218.565V405.6H232.341ZM248.607 416.31C252.723 416.31 255.761 417.15 257.721 418.83C259.709 420.51 260.703 422.75 260.703 425.55C260.703 427.37 260.227 429.05 259.275 430.59C258.351 432.102 256.923 433.32 254.991 434.244C253.087 435.14 250.721 435.588 247.893 435.588C245.821 435.588 243.763 435.336 241.719 434.832C239.703 434.328 237.967 433.614 236.511 432.69L239.493 426.432C240.669 427.216 241.957 427.818 243.357 428.238C244.785 428.658 246.213 428.868 247.641 428.868C249.069 428.868 250.203 428.602 251.043 428.07C251.911 427.51 252.345 426.74 252.345 425.76C252.345 424.78 251.925 424.038 251.085 423.534C250.245 423.03 248.761 422.778 246.633 422.778H238.653L240.123 405.6H258.855V412.026H247.011L246.633 416.31H248.607Z" fill="#094065"/>
<path d="M360 420.45C360 387.313 386.413 360 419.55 360C452.687 360 480 386.413 480 419.55C480 452.687 453.587 480 420.45 480C387.313 480 360 453.587 360 420.45Z" fill="#FF8811"/>
<path d="M416.782 436.098C419.776 434.129 422.487 433.945 425.81 435.115C428.038 436.598 429.604 437.84 430.186 440.484C430.348 442.972 430.088 444.618 428.502 446.582C426.428 448.628 424.692 449.241 421.805 449.4C419.405 449.332 418.068 448.746 416.257 447.106C414.612 445.185 413.983 443.55 414.157 441.013C414.525 438.874 415.152 437.594 416.782 436.098Z" fill="#FFFBF9"/>
<path d="M411.17 391.836C419.749 389.655 429.398 390.092 436.753 395.325C439.282 397.6 441.302 400.595 441.593 404.028C441.725 409.922 440.15 413.89 436.216 418.275C435.171 419.242 434.097 420.163 433.009 421.081C430.295 423.437 429.375 425.135 428.337 428.759H416.258C416.258 423.22 418.187 420.873 421.869 416.858C423.086 415.654 423.085 415.654 424.472 414.577C426.676 412.763 427.637 410.477 428.075 407.693C427.732 405.768 427.111 404.958 425.711 403.598C423.023 401.745 420.462 401.623 417.308 402.025C414.342 402.736 411.842 403.57 409.758 405.858C409.076 406.555 409.075 406.555 408.38 407.267C406.007 407.172 404.169 405.938 402.209 404.711C401.744 404.434 401.744 404.435 401.27 404.153C398.991 402.746 398.991 402.745 398.4 400.976C401.091 396.367 406.269 393.503 411.17 391.836Z" fill="#FFFBF9"/>
</svg>

