<svg width="480" height="480" viewBox="0 0 480 480" fill="none" xmlns="http://www.w3.org/2000/svg">
<circle cx="60" cy="60" r="57" stroke="#094065" stroke-width="6"/>
<path d="M72.0574 45.6V50.808L61.6834 75H52.6114L62.5234 52.194H54.7954V56.73H47.6974V45.6H72.0574Z" fill="#094065"/>
<circle cx="240" cy="60" r="57" stroke="#094065" stroke-width="6"/>
<path d="M230.721 45.6V75H222.405V52.026H216.945V45.6H230.721ZM248.961 75.588C246.441 75.588 244.201 74.986 242.241 73.782C240.281 72.578 238.741 70.828 237.621 68.532C236.529 66.208 235.983 63.464 235.983 60.3C235.983 57.136 236.529 54.406 237.621 52.11C238.741 49.786 240.281 48.022 242.241 46.818C244.201 45.614 246.441 45.012 248.961 45.012C251.453 45.012 253.679 45.614 255.639 46.818C257.599 48.022 259.125 49.786 260.217 52.11C261.337 54.406 261.897 57.136 261.897 60.3C261.897 63.464 261.337 66.208 260.217 68.532C259.125 70.828 257.599 72.578 255.639 73.782C253.679 74.986 251.453 75.588 248.961 75.588ZM248.961 68.784C250.361 68.784 251.467 68.112 252.279 66.768C253.119 65.396 253.539 63.24 253.539 60.3C253.539 57.36 253.119 55.218 252.279 53.874C251.467 52.502 250.361 51.816 248.961 51.816C247.533 51.816 246.399 52.502 245.559 53.874C244.747 55.218 244.341 57.36 244.341 60.3C244.341 63.24 244.747 65.396 245.559 66.768C246.399 68.112 247.533 68.784 248.961 68.784Z" fill="#094065"/>
<circle cx="420" cy="60" r="57" stroke="#094065" stroke-width="6"/>
<path d="M428.548 59.502C429.892 60.286 430.928 61.252 431.656 62.4C432.384 63.548 432.748 64.864 432.748 66.348C432.748 68.196 432.216 69.82 431.152 71.22C430.088 72.62 428.59 73.698 426.658 74.454C424.726 75.21 422.5 75.588 419.98 75.588C417.46 75.588 415.234 75.21 413.302 74.454C411.37 73.698 409.872 72.62 408.808 71.22C407.744 69.82 407.212 68.196 407.212 66.348C407.212 64.864 407.576 63.548 408.304 62.4C409.032 61.252 410.068 60.286 411.412 59.502C410.404 58.802 409.62 57.948 409.06 56.94C408.528 55.932 408.262 54.812 408.262 53.58C408.262 51.872 408.752 50.374 409.732 49.086C410.712 47.77 412.084 46.762 413.848 46.062C415.64 45.362 417.684 45.012 419.98 45.012C422.276 45.012 424.306 45.362 426.07 46.062C427.862 46.762 429.248 47.77 430.228 49.086C431.208 50.374 431.698 51.872 431.698 53.58C431.698 54.812 431.418 55.932 430.858 56.94C430.326 57.948 429.556 58.802 428.548 59.502ZM419.98 50.85C418.944 50.85 418.104 51.13 417.46 51.69C416.816 52.222 416.494 52.978 416.494 53.958C416.494 54.91 416.802 55.666 417.418 56.226C418.062 56.758 418.916 57.024 419.98 57.024C421.044 57.024 421.898 56.758 422.542 56.226C423.186 55.666 423.508 54.91 423.508 53.958C423.508 52.978 423.186 52.222 422.542 51.69C421.898 51.13 421.044 50.85 419.98 50.85ZM419.98 69.75C421.324 69.75 422.388 69.428 423.172 68.784C423.984 68.112 424.39 67.216 424.39 66.096C424.39 64.976 423.984 64.094 423.172 63.45C422.388 62.778 421.324 62.442 419.98 62.442C418.636 62.442 417.558 62.778 416.746 63.45C415.962 64.094 415.57 64.976 415.57 66.096C415.57 67.216 415.962 68.112 416.746 68.784C417.558 69.428 418.636 69.75 419.98 69.75Z" fill="#094065"/>
<circle cx="60" cy="240" r="57" stroke="#094065" stroke-width="6"/>
<path d="M56.5865 225.6V255H48.2705V232.026H42.8105V225.6H56.5865ZM74.448 225.6V255H66.132V232.026H60.672V225.6H74.448Z" fill="#094065"/>
<circle cx="240" cy="240" r="57" stroke="#094065" stroke-width="6"/>
<path d="M238.542 225.012C242.77 225.012 246.102 226.258 248.538 228.75C250.974 231.242 252.192 234.826 252.192 239.502C252.192 242.862 251.534 245.76 250.218 248.196C248.93 250.604 247.096 252.438 244.716 253.698C242.364 254.958 239.634 255.588 236.526 255.588C234.874 255.588 233.292 255.392 231.78 255C230.268 254.636 228.98 254.118 227.916 253.446L230.94 247.482C232.368 248.49 234.174 248.994 236.358 248.994C238.458 248.994 240.152 248.42 241.44 247.272C242.756 246.096 243.526 244.402 243.75 242.19C242.07 243.618 239.872 244.332 237.156 244.332C235.308 244.332 233.614 243.954 232.074 243.198C230.534 242.414 229.302 241.322 228.378 239.922C227.482 238.494 227.034 236.87 227.034 235.05C227.034 233.062 227.538 231.312 228.546 229.8C229.582 228.26 230.968 227.084 232.704 226.272C234.468 225.432 236.414 225.012 238.542 225.012ZM239.13 238.368C240.334 238.368 241.314 238.032 242.07 237.36C242.826 236.66 243.204 235.75 243.204 234.63C243.204 233.538 242.826 232.656 242.07 231.984C241.342 231.284 240.348 230.934 239.088 230.934C237.912 230.934 236.946 231.27 236.19 231.942C235.462 232.614 235.098 233.524 235.098 234.672C235.098 235.792 235.462 236.688 236.19 237.36C236.946 238.032 237.926 238.368 239.13 238.368Z" fill="#094065"/>
<circle cx="420" cy="240" r="57" stroke="#094065" stroke-width="6"/>
<path d="M412.526 225.6V255H404.21V232.026H398.75V225.6H412.526ZM440.509 248.406V255H417.619V249.792L428.623 239.502C429.687 238.494 430.401 237.64 430.765 236.94C431.129 236.212 431.311 235.484 431.311 234.756C431.311 233.804 430.989 233.062 430.345 232.53C429.701 231.998 428.763 231.732 427.531 231.732C426.439 231.732 425.431 231.984 424.507 232.488C423.611 232.964 422.869 233.664 422.281 234.588L416.107 231.144C417.255 229.24 418.865 227.742 420.937 226.65C423.009 225.558 425.459 225.012 428.287 225.012C430.527 225.012 432.501 225.376 434.209 226.104C435.945 226.832 437.289 227.882 438.241 229.254C439.221 230.598 439.711 232.166 439.711 233.958C439.711 235.554 439.361 237.066 438.661 238.494C437.989 239.894 436.673 241.49 434.713 243.282L429.169 248.406H440.509Z" fill="#094065"/>
<circle cx="60" cy="420" r="57" stroke="#094065" stroke-width="6"/>
<path d="M50.7213 405.6V435H42.4053V412.026H36.9453V405.6H50.7213ZM68.9608 435.588C66.4408 435.588 64.2008 434.986 62.2408 433.782C60.2808 432.578 58.7408 430.828 57.6208 428.532C56.5288 426.208 55.9828 423.464 55.9828 420.3C55.9828 417.136 56.5288 414.406 57.6208 412.11C58.7408 409.786 60.2808 408.022 62.2408 406.818C64.2008 405.614 66.4408 405.012 68.9608 405.012C71.4528 405.012 73.6788 405.614 75.6388 406.818C77.5988 408.022 79.1248 409.786 80.2168 412.11C81.3368 414.406 81.8968 417.136 81.8968 420.3C81.8968 423.464 81.3368 426.208 80.2168 428.532C79.1248 430.828 77.5988 432.578 75.6388 433.782C73.6788 434.986 71.4528 435.588 68.9608 435.588ZM68.9608 428.784C70.3608 428.784 71.4668 428.112 72.2788 426.768C73.1188 425.396 73.5388 423.24 73.5388 420.3C73.5388 417.36 73.1188 415.218 72.2788 413.874C71.4668 412.502 70.3608 411.816 68.9608 411.816C67.5328 411.816 66.3988 412.502 65.5588 413.874C64.7468 415.218 64.3408 417.36 64.3408 420.3C64.3408 423.24 64.7468 425.396 65.5588 426.768C66.3988 428.112 67.5328 428.784 68.9608 428.784Z" fill="#094065"/>
<circle cx="240" cy="420" r="57" stroke="#094065" stroke-width="6"/>
<path d="M232.444 405.6V435H224.128V412.026H218.668V405.6H232.444ZM252.783 417.36C255.219 417.864 257.081 418.872 258.369 420.384C259.685 421.868 260.343 423.674 260.343 425.802C260.343 427.538 259.867 429.148 258.915 430.632C257.991 432.116 256.563 433.32 254.631 434.244C252.727 435.14 250.361 435.588 247.533 435.588C245.461 435.588 243.403 435.336 241.359 434.832C239.343 434.328 237.593 433.614 236.109 432.69L239.133 426.432C240.281 427.216 241.569 427.818 242.997 428.238C244.453 428.658 245.881 428.868 247.281 428.868C248.709 428.868 249.843 428.602 250.683 428.07C251.523 427.538 251.943 426.782 251.943 425.802C251.943 423.898 250.445 422.946 247.449 422.946H243.963V417.696L249.213 412.026H237.621V405.6H258.873V410.808L252.783 417.36Z" fill="#094065"/>
<path d="M360 420.45C360 387.313 386.413 360 419.55 360C452.687 360 480 386.413 480 419.55C480 452.687 453.587 480 420.45 480C387.313 480 360 453.587 360 420.45Z" fill="#FF8811"/>
<path d="M416.782 436.098C419.776 434.129 422.487 433.945 425.81 435.116C428.038 436.598 429.604 437.84 430.186 440.485C430.348 442.972 430.088 444.618 428.502 446.583C426.428 448.629 424.692 449.241 421.805 449.4C419.405 449.332 418.068 448.746 416.257 447.107C414.612 445.185 413.983 443.55 414.157 441.013C414.525 438.875 415.152 437.594 416.782 436.098Z" fill="#FFFBF9"/>
<path d="M411.17 391.836C419.749 389.655 429.398 390.092 436.753 395.325C439.282 397.6 441.302 400.595 441.593 404.028C441.725 409.922 440.15 413.89 436.216 418.275C435.171 419.242 434.097 420.163 433.009 421.081C430.295 423.438 429.375 425.135 428.337 428.759H416.258C416.258 423.22 418.187 420.873 421.869 416.859C423.086 415.654 423.085 415.654 424.472 414.577C426.676 412.764 427.637 410.477 428.075 407.693C427.732 405.768 427.111 404.958 425.711 403.598C423.023 401.746 420.462 401.623 417.308 402.025C414.342 402.736 411.842 403.57 409.758 405.858C409.076 406.556 409.075 406.555 408.38 407.267C406.007 407.172 404.169 405.938 402.209 404.711C401.744 404.434 401.744 404.435 401.27 404.153C398.991 402.746 398.991 402.745 398.4 400.976C401.091 396.367 406.269 393.503 411.17 391.836Z" fill="#FFFBF9"/>
</svg>

