<svg width="480" height="480" viewBox="0 0 480 480" fill="none" xmlns="http://www.w3.org/2000/svg">
<rect x="22.2852" y="97.1428" width="435.429" height="285.714" fill="#FF8811"/>
<path d="M457.714 176V180.571L22.2852 230.286L22.2853 225.714L457.714 176Z" fill="#094065"/>
<path d="M457.714 193.714V198.571L22.2852 284L22.2853 279.456L457.714 193.714Z" fill="#094065"/>
<path d="M192.571 382.856L104 97.1428L108.571 97.143L197.143 382.857L192.571 382.856Z" fill="#FE0000"/>
<path d="M249.714 382.857L245.143 382.857L313.714 97.1428L318.285 97.1428L249.714 382.857Z" fill="#FE0000"/>
<path d="M238.856 382.857L234.285 382.857L151.428 97.1428L155.999 97.1428L238.856 382.857Z" fill="white"/>
<path d="M266.857 382.857L262.286 382.857L240 97.1428H244.571L266.857 382.857Z" fill="white"/>
<rect x="172.572" y="200.572" width="134.857" height="79.4286" fill="white"/>
<path d="M237.36 253.141C239.816 251.534 242.039 251.384 244.764 252.339C246.591 253.549 247.876 254.563 248.352 256.722C248.486 258.753 248.272 260.096 246.971 261.7C245.27 263.37 243.847 263.87 241.479 264C239.511 263.945 238.415 263.466 236.93 262.128C235.58 260.559 235.065 259.225 235.207 257.153C235.509 255.408 236.023 254.362 237.36 253.141Z" fill="#094065"/>
<path d="M232.757 217.009C239.793 215.229 247.706 215.585 253.738 219.857C255.812 221.714 257.469 224.159 257.707 226.961C257.816 231.773 256.524 235.013 253.298 238.592C252.441 239.381 251.56 240.133 250.668 240.882C248.442 242.806 247.687 244.192 246.837 247.15H236.93C236.93 242.628 238.512 240.712 241.532 237.435C242.53 236.453 242.529 236.452 243.667 235.573C245.474 234.093 246.263 232.226 246.621 229.954C246.34 228.382 245.831 227.721 244.683 226.61C242.479 225.098 240.378 224.998 237.791 225.326C235.359 225.907 233.309 226.588 231.6 228.456C231.04 229.025 231.04 229.025 230.469 229.605C228.524 229.528 227.016 228.521 225.408 227.519C225.028 227.293 225.027 227.293 224.639 227.063C222.77 225.915 222.77 225.914 222.285 224.47C224.492 220.708 228.738 218.37 232.757 217.009Z" fill="#094065"/>
</svg>

