<svg width="480" height="480" viewBox="0 0 480 480" fill="none" xmlns="http://www.w3.org/2000/svg">
<rect x="74" y="74" width="225" height="111" stroke="#094065" stroke-width="8"/>
<rect x="74" y="184" width="225" height="112" stroke="#094065" stroke-width="8"/>
<mask id="path-3-inside-1_780_46" fill="white">
<path d="M410 187.98V409.998H294.587V187.98H410Z"/>
</mask>
<path d="M410 409.998V417.998H418V409.998H410ZM294.587 409.998H286.587V417.998H294.587V409.998ZM410 187.98H402V409.998H410H418V187.98H410ZM410 409.998V401.998H294.587V409.998V417.998H410V409.998ZM294.587 409.998H302.587V187.98H294.587H286.587V409.998H294.587Z" fill="#094065" mask="url(#path-3-inside-1_780_46)"/>
<mask id="path-5-inside-2_780_46" fill="white">
<path d="M410 70H294.587V189.053H410V70Z"/>
</mask>
<path d="M410 70V62H418V70H410ZM294.587 70H286.587V62H294.587V70ZM294.587 189.053V197.053H286.587V189.053H294.587ZM410 189.053H418V197.053H410V189.053ZM410 70V78H294.587V70V62H410V70ZM294.587 70H302.587V189.053H294.587H286.587V70H294.587ZM294.587 189.053V181.053H410V189.053V197.053H294.587V189.053ZM410 189.053H402V70H410H418V189.053H410Z" fill="#094065" mask="url(#path-5-inside-2_780_46)"/>
<mask id="path-7-inside-3_780_46" fill="white">
<path d="M302.906 290.945H181.255V409.998H302.906V290.945Z"/>
</mask>
<path d="M302.906 290.945V282.945H310.906V290.945H302.906ZM181.255 290.945H173.255V282.945H181.255V290.945ZM181.255 409.998V417.998H173.255V409.998H181.255ZM302.906 409.998H310.906V417.998H302.906V409.998ZM302.906 290.945V298.945H181.255V290.945V282.945H302.906V290.945ZM181.255 290.945H189.255V409.998H181.255H173.255V290.945H181.255ZM181.255 409.998V401.998H302.906V409.998V417.998H181.255V409.998ZM302.906 409.998H294.906V290.945H302.906H310.906V409.998H302.906Z" fill="#094065" mask="url(#path-7-inside-3_780_46)"/>
<mask id="path-9-inside-4_780_46" fill="white">
<path d="M70 409.996H191.652V290.943H70V409.996Z"/>
</mask>
<path d="M70 409.996V417.996H62V409.996H70ZM191.652 409.996H199.652V417.996H191.652V409.996ZM191.652 290.943V282.943H199.652V290.943H191.652ZM70 290.943H62V282.943H70V290.943ZM70 409.996V401.996H191.652V409.996V417.996H70V409.996ZM191.652 409.996H183.652V290.943H191.652H199.652V409.996H191.652ZM191.652 290.943V298.943H70V290.943V282.943H191.652V290.943ZM70 290.943H78V409.996H70H62V290.943H70Z" fill="#094065" mask="url(#path-9-inside-4_780_46)"/>
</svg>

