<svg width="480" height="480" viewBox="0 0 480 480" fill="none" xmlns="http://www.w3.org/2000/svg">
<path d="M60 59.7L90 112.2H30L60 59.7Z" fill="#094065"/>
<path d="M60 59.6999L30 7.19998L90 7.19999L60 59.6999Z" fill="#094065"/>
<path d="M90 112.2L60 59.7L120 59.7L90 112.2Z" fill="#094065"/>
<path d="M30 112.2L4.76686e-05 59.7L60 59.7L30 112.2Z" fill="#FF8811"/>
<path d="M90 7.20001L60 59.7L120 59.7L90 7.20001Z" fill="#094065"/>
<path d="M30 7.20001L4.76686e-05 59.7L60 59.7L30 7.20001Z" fill="#094065"/>
<path d="M89.4199 8.20001L118.848 59.7L89.4199 111.2H30.5801L1.15137 59.7L30.5801 8.20001H89.4199Z" stroke="#FF8811" stroke-width="2"/>
<path d="M240 59.7L270 112.2H210L240 59.7Z" fill="#094065"/>
<path d="M240 59.6999L210 7.19998L270 7.19999L240 59.6999Z" fill="#094065"/>
<path d="M210 112.2L180 59.7L240 59.7L210 112.2Z" fill="#094065"/>
<path d="M270 112.2L240 59.7L300 59.7L270 112.2Z" fill="#094065"/>
<path d="M270 7.20001L240 59.7L300 59.7L270 7.20001Z" fill="#094065"/>
<path d="M210 7.20001L180 59.7L240 59.7L210 7.20001Z" fill="#FF8811"/>
<path d="M269.42 8.20001L298.848 59.7L269.42 111.2H210.58L181.151 59.7L210.58 8.20001H269.42Z" stroke="#FF8811" stroke-width="2"/>
<path d="M420 59.7L450 112.2H390L420 59.7Z" fill="#094065"/>
<path d="M420 59.7L390 7.20005L450 7.20005L420 59.7Z" fill="#094065"/>
<path d="M450 112.2L420 59.7L480 59.7L450 112.2Z" fill="#094065"/>
<path d="M390 112.2L360 59.7L420 59.7L390 112.2Z" fill="#FF8811"/>
<path d="M450 7.20001L420 59.7L480 59.7L450 7.20001Z" fill="#094065"/>
<path d="M390 7.20001L360 59.7L420 59.7L390 7.20001Z" fill="#FF8811"/>
<path d="M449.42 8.20001L478.848 59.7L449.42 111.2H390.58L361.151 59.7L390.58 8.20001H449.42Z" stroke="#FF8811" stroke-width="2"/>
<path d="M60 239.7L90 292.2H30L60 239.7Z" fill="#094065"/>
<path d="M60 239.7L30 187.2L90 187.2L60 239.7Z" fill="#094065"/>
<path d="M30 292.2L4.76686e-05 239.7L60 239.7L30 292.2Z" fill="#094065"/>
<path d="M90 292.2L60 239.7L120 239.7L90 292.2Z" fill="#FF8811"/>
<path d="M90 187.2L60 239.7L120 239.7L90 187.2Z" fill="#094065"/>
<path d="M30 187.2L4.76686e-05 239.7L60 239.7L30 187.2Z" fill="#094065"/>
<path d="M89.4199 188.2L118.848 239.7L89.4199 291.2H30.5801L1.15137 239.7L30.5801 188.2H89.4199Z" stroke="#FF8811" stroke-width="2"/>
<path d="M240 239.7L270 292.2H210L240 239.7Z" fill="#094065"/>
<path d="M210 292.2L180 239.7L240 239.7L210 292.2Z" fill="#094065"/>
<path d="M240 239.7L210 187.2L270 187.2L240 239.7Z" fill="#FF8811"/>
<path d="M270 292.2L240 239.7L300 239.7L270 292.2Z" fill="#094065"/>
<path d="M270 187.2L240 239.7L300 239.7L270 187.2Z" fill="#094065"/>
<path d="M210 187.2L180 239.7L240 239.7L210 187.2Z" fill="#094065"/>
<path d="M269.42 188.2L298.848 239.7L269.42 291.2H210.58L181.151 239.7L210.58 188.2H269.42Z" stroke="#FF8811" stroke-width="2"/>
<path d="M420 239.7L450 292.2H390L420 239.7Z" fill="#094065"/>
<path d="M390 292.2L360 239.7L420 239.7L390 292.2Z" fill="#094065"/>
<path d="M450 292.2L420 239.7L480 239.7L450 292.2Z" fill="#FF8811"/>
<path d="M420 240.3L390 187.8L450 187.8L420 240.3Z" fill="#FF8811"/>
<path d="M450 187.2L420 239.7L480 239.7L450 187.2Z" fill="#094065"/>
<path d="M390 187.2L360 239.7L420 239.7L390 187.2Z" fill="#094065"/>
<path d="M449.42 188.2L478.848 239.7L449.42 291.2H390.58L361.151 239.7L390.58 188.2H449.42Z" stroke="#FF8811" stroke-width="2"/>
<path d="M60 419.7L90 472.2H30L60 419.7Z" fill="#094065"/>
<path d="M90 472.2L60 419.7L120 419.7L90 472.2Z" fill="#FF8811"/>
<path d="M30 472.2L2.20551e-06 419.7L60 419.7L30 472.2Z" fill="#FF8811"/>
<path d="M60 419.7L30 367.2L90 367.2L60 419.7Z" fill="#094065"/>
<path d="M90 367.2L60 419.7L120 419.7L90 367.2Z" fill="#094065"/>
<path d="M30 367.2L4.76686e-05 419.7L60 419.7L30 367.2Z" fill="#094065"/>
<path d="M89.4199 368.2L118.848 419.7L89.4199 471.2H30.5801L1.15137 419.7L30.5801 368.2H89.4199Z" stroke="#FF8811" stroke-width="2"/>
<path d="M240 419.7L270 472.2H210L240 419.7Z" fill="#094065"/>
<path d="M210 472.2L180 419.7L240 419.7L210 472.2Z" fill="#094065"/>
<path d="M240 420.3L210 367.8L270 367.8L240 420.3Z" fill="#FF8811"/>
<path d="M270 472.2L240 419.7L300 419.7L270 472.2Z" fill="#094065"/>
<path d="M270 367.2L240 419.7L300 419.7L270 367.2Z" fill="#094065"/>
<path d="M210 367.2L180 419.7L240 419.7L210 367.2Z" fill="#FF8811"/>
<path d="M269.42 368.2L298.848 419.7L269.42 471.2H210.58L181.151 419.7L210.58 368.2H269.42Z" stroke="#FF8811" stroke-width="2"/>
<path d="M448.84 370L477.696 420.5L448.84 471H391.16L362.303 420.5L391.16 370H448.84Z" fill="#FF8811" stroke="#FF8811" stroke-width="4"/>
<path d="M416.382 436.498C419.376 434.529 422.087 434.345 425.409 435.515C427.637 436.998 429.204 438.24 429.785 440.884C429.948 443.372 429.687 445.018 428.101 446.982C426.027 449.028 424.292 449.641 421.405 449.8C419.005 449.732 417.668 449.146 415.857 447.506C414.212 445.585 413.583 443.95 413.756 441.413C414.124 439.274 414.751 437.994 416.382 436.498Z" fill="#FFFBF9"/>
<path d="M410.769 392.236C419.348 390.055 428.997 390.492 436.353 395.725C438.882 398 440.902 400.995 441.192 404.428C441.325 410.322 439.749 414.29 435.815 418.675C434.77 419.642 433.696 420.563 432.608 421.481C429.894 423.837 428.974 425.535 427.937 429.159H415.858C415.858 423.62 417.786 421.273 421.468 417.258C422.685 416.054 422.685 416.054 424.072 414.977C426.275 413.163 427.237 410.877 427.674 408.093C427.332 406.168 426.71 405.358 425.311 403.998C422.623 402.145 420.062 402.023 416.908 402.425C413.942 403.136 411.441 403.97 409.358 406.258C408.675 406.955 408.675 406.955 407.979 407.667C405.607 407.572 403.768 406.338 401.808 405.111C401.344 404.834 401.343 404.835 400.87 404.553C398.591 403.146 398.591 403.145 398 401.376C400.691 396.767 405.868 393.903 410.769 392.236Z" fill="#FFFBF9"/>
</svg>

