<svg width="480" height="480" viewBox="0 0 480 480" fill="none" xmlns="http://www.w3.org/2000/svg">
<circle cx="60" cy="60" r="57" stroke="#094065" stroke-width="6"/>
<path d="M61.4321 69.372H57.0641V75H48.9581V69.372H33.4181V63.954L46.6061 45.6H55.2161L43.2461 62.778H49.2101V57.78H57.0641V62.778H61.4321V69.372ZM78.9153 57.36C81.3513 57.864 83.2133 58.872 84.5013 60.384C85.8173 61.868 86.4753 63.674 86.4753 65.802C86.4753 67.538 85.9993 69.148 85.0473 70.632C84.1233 72.116 82.6953 73.32 80.7633 74.244C78.8593 75.14 76.4933 75.588 73.6653 75.588C71.5933 75.588 69.5353 75.336 67.4913 74.832C65.4753 74.328 63.7253 73.614 62.2413 72.69L65.2653 66.432C66.4133 67.216 67.7013 67.818 69.1293 68.238C70.5853 68.658 72.0133 68.868 73.4133 68.868C74.8413 68.868 75.9753 68.602 76.8153 68.07C77.6553 67.538 78.0753 66.782 78.0753 65.802C78.0753 63.898 76.5773 62.946 73.5813 62.946H70.0953V57.696L75.3453 52.026H63.7533V45.6H85.0053V50.808L78.9153 57.36Z" fill="#094065"/>
<circle cx="240" cy="60" r="57" stroke="#094065" stroke-width="6"/>
<path d="M241.473 69.372H237.105V75H228.999V69.372H213.459V63.954L226.647 45.6H235.257L223.287 62.778H229.251V57.78H237.105V62.778H241.473V69.372ZM266.682 68.406V75H243.792V69.792L254.796 59.502C255.86 58.494 256.574 57.64 256.938 56.94C257.302 56.212 257.484 55.484 257.484 54.756C257.484 53.804 257.162 53.062 256.518 52.53C255.874 51.998 254.936 51.732 253.704 51.732C252.612 51.732 251.604 51.984 250.68 52.488C249.784 52.964 249.042 53.664 248.454 54.588L242.28 51.144C243.428 49.24 245.038 47.742 247.11 46.65C249.182 45.558 251.632 45.012 254.46 45.012C256.7 45.012 258.674 45.376 260.382 46.104C262.118 46.832 263.462 47.882 264.414 49.254C265.394 50.598 265.884 52.166 265.884 53.958C265.884 55.554 265.534 57.066 264.834 58.494C264.162 59.894 262.846 61.49 260.886 63.282L255.342 68.406H266.682Z" fill="#094065"/>
<circle cx="420" cy="60" r="57" stroke="#094065" stroke-width="6"/>
<path d="M419.648 69.372H415.28V75H407.174V69.372H391.634V63.954L404.822 45.6H413.432L401.462 62.778H407.426V57.78H415.28V62.778H419.648V69.372ZM435.154 75.588C432.634 75.588 430.394 74.986 428.434 73.782C426.474 72.578 424.934 70.828 423.814 68.532C422.722 66.208 422.176 63.464 422.176 60.3C422.176 57.136 422.722 54.406 423.814 52.11C424.934 49.786 426.474 48.022 428.434 46.818C430.394 45.614 432.634 45.012 435.154 45.012C437.646 45.012 439.872 45.614 441.832 46.818C443.792 48.022 445.318 49.786 446.41 52.11C447.53 54.406 448.09 57.136 448.09 60.3C448.09 63.464 447.53 66.208 446.41 68.532C445.318 70.828 443.792 72.578 441.832 73.782C439.872 74.986 437.646 75.588 435.154 75.588ZM435.154 68.784C436.554 68.784 437.66 68.112 438.472 66.768C439.312 65.396 439.732 63.24 439.732 60.3C439.732 57.36 439.312 55.218 438.472 53.874C437.66 52.502 436.554 51.816 435.154 51.816C433.726 51.816 432.592 52.502 431.752 53.874C430.94 55.218 430.534 57.36 430.534 60.3C430.534 63.24 430.94 65.396 431.752 66.768C432.592 68.112 433.726 68.784 435.154 68.784Z" fill="#094065"/>
<circle cx="60" cy="240" r="57" stroke="#094065" stroke-width="6"/>
<path d="M50.3077 237.36C52.7437 237.864 54.6057 238.872 55.8937 240.384C57.2097 241.868 57.8677 243.674 57.8677 245.802C57.8677 247.538 57.3917 249.148 56.4397 250.632C55.5157 252.116 54.0877 253.32 52.1557 254.244C50.2517 255.14 47.8857 255.588 45.0577 255.588C42.9857 255.588 40.9277 255.336 38.8837 254.832C36.8677 254.328 35.1177 253.614 33.6337 252.69L36.6577 246.432C37.8057 247.216 39.0937 247.818 40.5217 248.238C41.9777 248.658 43.4057 248.868 44.8057 248.868C46.2337 248.868 47.3677 248.602 48.2077 248.07C49.0477 247.538 49.4677 246.782 49.4677 245.802C49.4677 243.898 47.9697 242.946 44.9737 242.946H41.4877V237.696L46.7377 232.026H35.1457V225.6H56.3977V230.808L50.3077 237.36ZM84.9872 225.6V230.808L74.6132 255H65.5412L75.4532 232.194H67.7252V236.73H60.6272V225.6H84.9872Z" fill="#094065"/>
<circle cx="240" cy="240" r="57" stroke="#094065" stroke-width="6"/>
<path d="M230.882 237.36C233.318 237.864 235.18 238.872 236.468 240.384C237.784 241.868 238.442 243.674 238.442 245.802C238.442 247.538 237.966 249.148 237.014 250.632C236.09 252.116 234.662 253.32 232.73 254.244C230.826 255.14 228.46 255.588 225.632 255.588C223.56 255.588 221.502 255.336 219.458 254.832C217.442 254.328 215.692 253.614 214.208 252.69L217.232 246.432C218.38 247.216 219.668 247.818 221.096 248.238C222.552 248.658 223.98 248.868 225.38 248.868C226.808 248.868 227.942 248.602 228.782 248.07C229.622 247.538 230.042 246.782 230.042 245.802C230.042 243.898 228.544 242.946 225.548 242.946H222.062V237.696L227.312 232.026H215.72V225.6H236.972V230.808L230.882 237.36ZM256.823 237.36C259.259 237.864 261.121 238.872 262.409 240.384C263.725 241.868 264.383 243.674 264.383 245.802C264.383 247.538 263.907 249.148 262.955 250.632C262.031 252.116 260.603 253.32 258.671 254.244C256.767 255.14 254.401 255.588 251.573 255.588C249.501 255.588 247.443 255.336 245.399 254.832C243.383 254.328 241.633 253.614 240.149 252.69L243.173 246.432C244.321 247.216 245.609 247.818 247.037 248.238C248.493 248.658 249.921 248.868 251.321 248.868C252.749 248.868 253.883 248.602 254.723 248.07C255.563 247.538 255.983 246.782 255.983 245.802C255.983 243.898 254.485 242.946 251.489 242.946H248.003V237.696L253.253 232.026H241.661V225.6H262.913V230.808L256.823 237.36Z" fill="#094065"/>
<circle cx="420" cy="240" r="57" stroke="#094065" stroke-width="6"/>
<path d="M417.111 248.406V255H394.221V249.792L405.225 239.502C406.289 238.494 407.003 237.64 407.367 236.94C407.731 236.212 407.913 235.484 407.913 234.756C407.913 233.804 407.591 233.062 406.947 232.53C406.303 231.998 405.365 231.732 404.133 231.732C403.041 231.732 402.033 231.984 401.109 232.488C400.213 232.964 399.471 233.664 398.883 234.588L392.709 231.144C393.857 229.24 395.467 227.742 397.539 226.65C399.611 225.558 402.061 225.012 404.889 225.012C407.129 225.012 409.103 225.376 410.811 226.104C412.547 226.832 413.891 227.882 414.843 229.254C415.823 230.598 416.313 232.166 416.313 233.958C416.313 235.554 415.963 237.066 415.263 238.494C414.591 239.894 413.275 241.49 411.315 243.282L405.771 248.406H417.111ZM441.539 239.502C442.883 240.286 443.919 241.252 444.647 242.4C445.375 243.548 445.739 244.864 445.739 246.348C445.739 248.196 445.207 249.82 444.143 251.22C443.079 252.62 441.581 253.698 439.649 254.454C437.717 255.21 435.491 255.588 432.971 255.588C430.451 255.588 428.225 255.21 426.293 254.454C424.361 253.698 422.863 252.62 421.799 251.22C420.735 249.82 420.203 248.196 420.203 246.348C420.203 244.864 420.567 243.548 421.295 242.4C422.023 241.252 423.059 240.286 424.403 239.502C423.395 238.802 422.611 237.948 422.051 236.94C421.519 235.932 421.253 234.812 421.253 233.58C421.253 231.872 421.743 230.374 422.723 229.086C423.703 227.77 425.075 226.762 426.839 226.062C428.631 225.362 430.675 225.012 432.971 225.012C435.267 225.012 437.297 225.362 439.061 226.062C440.853 226.762 442.239 227.77 443.219 229.086C444.199 230.374 444.689 231.872 444.689 233.58C444.689 234.812 444.409 235.932 443.849 236.94C443.317 237.948 442.547 238.802 441.539 239.502ZM432.971 230.85C431.935 230.85 431.095 231.13 430.451 231.69C429.807 232.222 429.485 232.978 429.485 233.958C429.485 234.91 429.793 235.666 430.409 236.226C431.053 236.758 431.907 237.024 432.971 237.024C434.035 237.024 434.889 236.758 435.533 236.226C436.177 235.666 436.499 234.91 436.499 233.958C436.499 232.978 436.177 232.222 435.533 231.69C434.889 231.13 434.035 230.85 432.971 230.85ZM432.971 249.75C434.315 249.75 435.379 249.428 436.163 248.784C436.975 248.112 437.381 247.216 437.381 246.096C437.381 244.976 436.975 244.094 436.163 243.45C435.379 242.778 434.315 242.442 432.971 242.442C431.627 242.442 430.549 242.778 429.737 243.45C428.953 244.094 428.561 244.976 428.561 246.096C428.561 247.216 428.953 248.112 429.737 248.784C430.549 249.428 431.627 249.75 432.971 249.75Z" fill="#094065"/>
<circle cx="60" cy="420" r="57" stroke="#094065" stroke-width="6"/>
<path d="M58.5874 428.406V435H35.6974V429.792L46.7014 419.502C47.7654 418.494 48.4794 417.64 48.8434 416.94C49.2074 416.212 49.3894 415.484 49.3894 414.756C49.3894 413.804 49.0674 413.062 48.4234 412.53C47.7794 411.998 46.8414 411.732 45.6094 411.732C44.5174 411.732 43.5094 411.984 42.5854 412.488C41.6894 412.964 40.9474 413.664 40.3594 414.588L34.1854 411.144C35.3334 409.24 36.9434 407.742 39.0154 406.65C41.0874 405.558 43.5374 405.012 46.3654 405.012C48.6054 405.012 50.5794 405.376 52.2874 406.104C54.0234 406.832 55.3674 407.882 56.3194 409.254C57.2994 410.598 57.7894 412.166 57.7894 413.958C57.7894 415.554 57.4394 417.066 56.7394 418.494C56.0674 419.894 54.7514 421.49 52.7914 423.282L47.2474 428.406H58.5874ZM84.57 428.406V435H61.68V429.792L72.684 419.502C73.748 418.494 74.462 417.64 74.826 416.94C75.19 416.212 75.372 415.484 75.372 414.756C75.372 413.804 75.05 413.062 74.406 412.53C73.762 411.998 72.824 411.732 71.592 411.732C70.5 411.732 69.492 411.984 68.568 412.488C67.672 412.964 66.93 413.664 66.342 414.588L60.168 411.144C61.316 409.24 62.926 407.742 64.998 406.65C67.07 405.558 69.52 405.012 72.348 405.012C74.588 405.012 76.562 405.376 78.27 406.104C80.006 406.832 81.35 407.882 82.302 409.254C83.282 410.598 83.772 412.166 83.772 413.958C83.772 415.554 83.422 417.066 82.722 418.494C82.05 419.894 80.734 421.49 78.774 423.282L73.23 428.406H84.57Z" fill="#094065"/>
<circle cx="240" cy="420" r="57" stroke="#094065" stroke-width="6"/>
<path d="M232.341 405.6V435H224.025V412.026H218.565V405.6H232.341ZM248.607 416.31C252.723 416.31 255.761 417.15 257.721 418.83C259.709 420.51 260.703 422.75 260.703 425.55C260.703 427.37 260.227 429.05 259.275 430.59C258.351 432.102 256.923 433.32 254.991 434.244C253.087 435.14 250.721 435.588 247.893 435.588C245.821 435.588 243.763 435.336 241.719 434.832C239.703 434.328 237.967 433.614 236.511 432.69L239.493 426.432C240.669 427.216 241.957 427.818 243.357 428.238C244.785 428.658 246.213 428.868 247.641 428.868C249.069 428.868 250.203 428.602 251.043 428.07C251.911 427.51 252.345 426.74 252.345 425.76C252.345 424.78 251.925 424.038 251.085 423.534C250.245 423.03 248.761 422.778 246.633 422.778H238.653L240.123 405.6H258.855V412.026H247.011L246.633 416.31H248.607Z" fill="#094065"/>
<path d="M360 420.45C360 387.313 386.413 360 419.55 360C452.687 360 480 386.413 480 419.55C480 452.687 453.587 480 420.45 480C387.313 480 360 453.587 360 420.45Z" fill="#FF8811"/>
<path d="M416.782 436.098C419.776 434.129 422.487 433.945 425.81 435.116C428.038 436.598 429.604 437.84 430.186 440.485C430.348 442.972 430.088 444.618 428.502 446.583C426.428 448.629 424.692 449.241 421.805 449.4C419.405 449.332 418.068 448.746 416.257 447.107C414.612 445.185 413.983 443.55 414.157 441.013C414.525 438.875 415.152 437.594 416.782 436.098Z" fill="#FFFBF9"/>
<path d="M411.17 391.836C419.749 389.655 429.398 390.092 436.753 395.325C439.282 397.6 441.302 400.595 441.593 404.028C441.725 409.922 440.15 413.89 436.216 418.275C435.171 419.242 434.097 420.163 433.009 421.081C430.295 423.438 429.375 425.135 428.337 428.759H416.258C416.258 423.22 418.187 420.873 421.869 416.859C423.086 415.654 423.085 415.654 424.472 414.577C426.676 412.764 427.637 410.477 428.075 407.693C427.732 405.768 427.111 404.958 425.711 403.598C423.023 401.746 420.462 401.623 417.308 402.025C414.342 402.736 411.842 403.57 409.758 405.858C409.076 406.556 409.075 406.555 408.38 407.267C406.007 407.172 404.169 405.938 402.209 404.711C401.744 404.434 401.744 404.435 401.27 404.153C398.991 402.746 398.991 402.745 398.4 400.976C401.091 396.367 406.269 393.503 411.17 391.836Z" fill="#FFFBF9"/>
</svg>

